<?xml version="1.0" encoding="UTF-8" standalone="no"?>
<!-- Created with Inkscape (http://www.inkscape.org/) -->

<svg
   version="1.1"
   id="svg2"
   xml:space="preserve"
   width="379.39999"
   height="379.39999"
   viewBox="0 0 379.39999 379.39999"
   sodipodi:docname="KTH_Logotyp_RGB_2013.eps"
   xmlns:inkscape="http://www.inkscape.org/namespaces/inkscape"
   xmlns:sodipodi="http://sodipodi.sourceforge.net/DTD/sodipodi-0.dtd"
   xmlns="http://www.w3.org/2000/svg"
   xmlns:svg="http://www.w3.org/2000/svg"><defs
     id="defs6" /><sodipodi:namedview
     id="namedview4"
     pagecolor="#ffffff"
     bordercolor="#666666"
     borderopacity="1.0"
     inkscape:pageshadow="2"
     inkscape:pageopacity="0.0"
     inkscape:pagecheckerboard="0" /><g
     id="g8"
     inkscape:groupmode="layer"
     inkscape:label="ink_ext_XXXXXX"
     transform="matrix(1.3333333,0,0,-1.3333333,0,379.4)"><g
       id="g10"
       transform="scale(0.1)"><path
         d="M 2845.45,0 H 0 V 2845.45 H 2845.45 V 0"
         style="fill:#2e59b0;fill-opacity:1;fill-rule:nonzero;stroke:none"
         id="path12" /><path
         d="m 1422.72,225.531 c -9.16,10.059 -19.21,21.25 -29.51,32.77 9.77,11.09 19.8,22.41 29.5,33.23 9.72,-10.82 19.74,-22.14 29.51,-33.242 -10.3,-11.508 -20.34,-22.699 -29.5,-32.758 z m 54.08,32.758 c 24.79,28.152 51.35,58.012 69.84,76.5 36.67,36.672 74.52,36.281 74.52,36.281 0,0 -43.24,21.231 -88.82,-24.308 -12.25,-12.282 -39.73,-43.192 -67.83,-74.703 -10.15,11.39 -20.2,22.66 -29.51,33.043 10.32,11.32 19.97,21.617 28.03,29.687 36.68,36.672 74.54,36.281 74.54,36.281 0,0 -43.26,21.231 -88.78,-24.308 -5.79,-5.793 -15.03,-15.813 -26.07,-28.012 -11.03,12.199 -20.27,22.219 -26.06,28.012 -45.56,45.539 -88.8,24.308 -88.8,24.308 0,0 37.82,0.391 74.53,-36.281 8.07,-8.07 17.72,-18.367 28.04,-29.687 -9.3,-10.383 -19.35,-21.653 -29.51,-33.043 -28.1,31.511 -55.59,62.421 -67.85,74.703 -45.57,45.539 -88.79,24.308 -88.79,24.308 0,0 37.82,0.391 74.5,-36.281 18.49,-18.5 45.05,-48.348 69.85,-76.5 -23.4,-26.18 -45.75,-50.937 -58.45,-63.648 -30.49,-30.493 -66.02,-32.821 -66.02,-32.821 0,0 38.21,-22.379 90.33,30.891 9.66,9.859 26.93,29.469 46.43,51.629 10.61,-12.051 20.58,-23.379 29,-32.758 -6.26,-6.73 -11.82,-12.59 -16.17,-16.941 -30.48,-30.493 -66.02,-32.821 -66.02,-32.821 0,0 38.22,-22.379 90.37,30.891 1.38,1.41 2.94,3.059 4.62,4.848 1.68,-1.789 3.25,-3.438 4.64,-4.848 52.08,-53.27 90.33,-30.891 90.33,-30.891 0,0 -35.53,2.328 -66,32.821 -4.34,4.351 -9.91,10.211 -16.16,16.949 8.4,9.371 18.38,20.699 28.98,32.75 19.49,-22.16 36.77,-41.77 46.42,-51.629 52.13,-53.27 90.33,-30.891 90.33,-30.891 0,0 -35.53,2.328 -66.03,32.821 -12.7,12.711 -35.03,37.468 -58.43,63.648"
         style="fill:#ffffff;fill-opacity:1;fill-rule:nonzero;stroke:none"
         id="path14" /><path
         d="m 486.285,1901.52 c 1.879,3.58 3.828,5.25 5.121,5.66 1.477,0.47 2.602,1.23 3.477,2.14 1.23,-0.24 2.601,-0.21 4.094,0.27 6.168,1.87 23.832,-11.11 29.976,-30.65 2.024,-6.45 2.863,-13.06 2.602,-19.32 -4.332,-3.24 -10.438,-6.71 -18.18,-9.15 -6.062,-1.88 -12.414,-2.88 -18.371,-2.88 -0.68,0 -1.203,0.07 -1.828,0.09 -3.781,5 -6.961,10.78 -8.961,17.23 -4.406,14.07 -2.012,28.84 2.07,36.61 z m 62.606,-46.91 c 0.816,-5.28 -0.082,-10.56 -2.661,-15.46 -4.292,-8.18 -12.906,-14.78 -23.648,-18.12 -4.691,-1.47 -9.394,-2.22 -13.977,-2.22 -12.597,0 -22.355,5.48 -26.812,14.85 4.945,-1.27 10.059,-1.51 13.211,-1.51 7.492,0 15.426,1.23 22.98,3.58 12.774,4.03 24.321,11.2 30.907,18.88 z m -83.188,-22.1 c 5.582,-17.97 22.024,-29.14 42.902,-29.14 6.051,0 12.208,0.98 18.282,2.85 0.742,-1.23 1.59,-2.46 2.816,-4.12 3.188,-4.3 6.891,-7.91 10.996,-10.73 1.336,-0.92 2.856,-1.35 4.364,-1.35 2.457,0 4.875,1.17 6.375,3.35 2.41,3.51 1.515,8.32 -2,10.73 -2.7,1.85 -5.165,4.27 -7.309,7.17 -0.465,0.63 -0.781,1.06 -1.094,1.5 8.125,4.97 14.817,11.47 18.867,19.19 5.141,9.79 6.129,20.5 2.856,30.99 -3.113,9.99 -11.266,13.1 -15.59,13.36 -0.527,0.04 -1.023,-0.2 -1.547,-0.28 -0.519,2.52 -1.152,5.04 -1.933,7.54 -7.481,23.79 -29.032,42.91 -45.352,41.5 -1.883,1.57 -5.09,3.59 -9.035,2.25 -3.953,-1.18 -5.492,-4.39 -6.235,-7.02 -4.082,-2.32 -7.644,-6.26 -10.453,-11.6 -6.965,-13.24 -8.195,-32.24 -3.14,-48.38 0.769,-2.48 1.679,-4.91 2.683,-7.27 -0.433,-0.23 -0.929,-0.3 -1.32,-0.61 -3.375,-2.7 -8.254,-9.94 -5.133,-19.93"
         style="fill:#ffffff;fill-opacity:1;fill-rule:nonzero;stroke:none"
         id="path16" /><path
         d="m 614.805,1754.98 c -0.242,9.97 2.441,19.14 7.554,25.81 2.989,3.9 8.016,8.47 15.86,9.84 -5.117,-8.73 -8.274,-22.16 -8,-35.33 0.301,-12.86 3.863,-26.26 9.679,-34.92 -14.312,1.69 -24.695,15.71 -25.093,34.6 z m 52.828,24.57 c 20.32,0.71 38.465,-12.2 38.617,-18.4 0,-1.62 0.41,-2.98 1.047,-4.11 -0.586,-1.14 -0.953,-2.5 -0.895,-4.11 0.036,-1.26 -0.933,-3.65 -3.742,-6.6 -6.062,-6.35 -19.293,-13.34 -34.008,-13.66 -6.711,-0.17 -13.293,0.85 -19.179,2.8 -1.95,5.07 -3.621,11.95 -3.813,20.17 -0.168,8.03 1.121,14.85 2.774,19.98 5.824,2.29 12.308,3.77 19.199,3.93 z m -23.762,-74.77 c 10.461,0.2 15.777,7.14 17.274,11.22 0.171,0.48 0.078,0.98 0.148,1.48 1.977,-0.15 3.965,-0.27 5.973,-0.27 0.57,0 1.152,0.01 1.726,0.02 16.906,0.37 34.508,7.61 44.84,18.44 4.16,4.36 6.758,8.99 7.656,13.64 2.004,1.33 4.774,3.79 4.664,7.89 0,4.16 -2.672,6.58 -4.996,8.06 -3.929,16.05 -28.551,30.25 -53.871,29.73 -2.613,-0.06 -5.195,-0.27 -7.738,-0.58 -0.098,0.52 -0.027,1.06 -0.231,1.57 -1.589,3.89 -6.961,10.47 -17.621,10.47 -0.007,0 -0.019,0 -0.019,0 -12.551,-0.3 -23.762,-6.07 -31.571,-16.26 -4.417,-5.77 -7.378,-12.79 -9.089,-20.37 -0.496,0.14 -0.993,0.3 -1.703,0.52 -3.368,1.08 -6.465,2.65 -9.223,4.69 -3.442,2.52 -8.274,1.79 -10.797,-1.65 -2.523,-3.44 -1.789,-8.27 1.645,-10.8 4.105,-3.01 8.695,-5.35 13.675,-6.95 1.969,-0.62 3.41,-1.02 4.782,-1.33 0.746,-28.71 18.964,-49.54 43.441,-49.54 0.051,0 0.988,0.02 1.035,0.02"
         style="fill:#ffffff;fill-opacity:1;fill-rule:nonzero;stroke:none"
         id="path18" /><path
         d="m 464.906,1298.82 c -5.16,8.54 -7.386,17.85 -6.261,26.18 0.664,4.9 2.777,11.44 8.89,16.44 -0.125,-10.13 3.805,-23.37 10.61,-34.73 6.945,-11.47 16.757,-20.94 25.71,-25.48 -13.148,-5.62 -29.558,1.94 -38.949,17.59 z m 33.645,47.56 c 17.594,10.53 39.472,8.49 42.633,3.31 0.808,-1.47 1.851,-2.46 2.996,-3.15 0.058,-1.29 0.41,-2.64 1.254,-4.02 0.656,-1.08 1.007,-3.64 0.035,-7.59 -2.106,-8.51 -10.121,-21.15 -22.758,-28.76 -5.762,-3.47 -11.93,-5.84 -18.023,-7.06 -4.2,3.43 -9.063,8.55 -13.321,15.57 -4.195,7 -6.469,13.67 -7.562,18.99 3.929,4.83 8.933,9.2 14.746,12.71 z m 61.91,-15.15 c 1.441,5.84 1.394,11.15 -0.113,15.61 1.09,2.16 2.285,5.7 0.105,9.24 -2.078,3.56 -5.57,4.33 -8.301,4.47 -11.359,11.97 -40.086,11.93 -61.562,-0.94 -2.231,-1.35 -4.363,-2.8 -6.418,-4.34 -0.348,0.41 -0.559,0.92 -0.992,1.26 -0.707,0.56 -4.532,3.29 -10.274,3.29 -3.515,0 -6.961,-0.99 -10.246,-2.97 -10.742,-6.49 -17.605,-17.06 -19.32,-29.78 -0.969,-7.2 -0.055,-14.75 2.226,-22.2 -0.507,-0.11 -1.003,-0.22 -1.742,-0.38 -3.496,-0.74 -6.969,-0.92 -10.293,-0.52 -4.215,0.51 -8.07,-2.53 -8.574,-6.77 -0.492,-4.23 2.531,-8.07 6.766,-8.57 1.757,-0.2 3.531,-0.31 5.312,-0.31 3.301,0 6.649,0.35 9.996,1.07 2.012,0.43 3.457,0.77 4.824,1.2 10.157,-16.75 26.04,-26.75 42.559,-26.75 7.316,0 14.277,1.97 20.676,5.85 8.937,5.37 10.105,14.03 9.387,18.3 -0.082,0.49 -0.411,0.88 -0.582,1.34 2.304,1.08 4.578,2.28 6.789,3.62 14.504,8.73 26.191,23.75 29.777,38.28"
         style="fill:#ffffff;fill-opacity:1;fill-rule:nonzero;stroke:none"
         id="path20" /><path
         d="m 286.953,1366.58 c 1.07,1.15 1.684,2.37 2.008,3.59 1.203,0.4 2.387,1.11 3.418,2.3 4.379,4.62 26.215,2.03 41.152,-11.97 4.961,-4.66 8.942,-10 11.782,-15.55 -2.184,-4.96 -5.801,-10.99 -11.352,-16.93 -5.531,-5.86 -11.398,-9.84 -16.504,-12.39 -5.621,2.47 -11.086,6.05 -15.969,10.68 -10.746,10.07 -15.925,24.08 -16.191,32.85 -0.121,4.05 0.758,6.47 1.656,7.42 z m 81.192,-32.26 c 0.277,-9.23 -3.981,-19.21 -11.704,-27.4 -8.011,-8.55 -18.062,-13.46 -27.562,-13.46 h -0.008 c -5.187,0.01 -10.019,1.52 -14.16,4.43 9.762,2.59 21.402,9.91 30.504,19.56 9.137,9.78 15.676,21.69 17.644,31.62 3.309,-4.18 5.121,-9.22 5.286,-14.75 z m -77.243,-19.25 c 1.891,-1.79 3.864,-3.46 5.891,-5.01 -0.266,-0.41 -0.66,-0.71 -0.848,-1.17 -1.609,-4.03 -2.308,-12.76 5.309,-19.9 7.609,-7.17 17.152,-10.97 27.617,-10.97 h 0.008 c 13.664,0 27.719,6.61 38.594,18.11 1.242,-0.7 2.578,-1.34 4.441,-2.18 4.703,-2.13 9.68,-3.47 14.801,-3.98 0.258,-0.02 0.512,-0.04 0.765,-0.04 3.922,0 7.282,2.98 7.676,6.98 0.414,4.23 -2.683,8.01 -6.929,8.43 -3.43,0.33 -6.774,1.23 -9.95,2.68 -0.644,0.29 -1.074,0.49 -1.531,0.7 4.649,8.32 7.102,17.34 6.832,26.07 -0.332,11.03 -4.734,20.85 -12.719,28.35 -4.808,4.56 -9.82,5.51 -13.171,5.51 -3.645,0 -6.247,-1.12 -6.961,-1.46 -0.5,-0.25 -0.821,-0.7 -1.25,-1.04 -1.684,1.94 -3.469,3.82 -5.375,5.61 -18.118,16.97 -45.938,23.08 -59.844,13.86 -2.41,0.45 -6.235,0.64 -9.055,-2.5 -2.832,-2.97 -2.582,-6.52 -1.926,-9.17 -2.422,-4.03 -3.593,-9.21 -3.414,-15.25 0.45,-14.96 8.723,-32.1 21.039,-43.63"
         style="fill:#ffffff;fill-opacity:1;fill-rule:nonzero;stroke:none"
         id="path22" /><path
         d="m 558.578,823.879 c -14.14,8.16 -24.297,23.601 -18.328,38.543 4.754,-8.93 14.461,-18.453 26.063,-25.192 11.308,-6.511 24.757,-10.39 34.82,-9.921 -8.692,-11.149 -26.774,-12.559 -42.555,-3.43 z m 6.442,57.91 c 10.277,17.723 30.402,26.52 35.746,23.473 1.418,-0.864 2.812,-1.231 4.136,-1.27 0.668,-1.082 1.629,-2.094 3.02,-2.902 1.082,-0.621 2.625,-2.68 3.68,-6.61 2.281,-8.488 1.386,-23.421 -5.997,-36.171 -3.304,-5.739 -7.46,-10.719 -12.085,-14.707 -5.493,0.937 -12.481,2.968 -19.481,7 -7.035,4.078 -12.242,8.808 -15.773,12.918 1.109,6.121 3.371,12.378 6.754,18.269 z m 61.496,16.703 c -1.575,5.84 -4.192,10.477 -7.664,13.629 -0.098,2.41 -0.75,6.078 -4.262,8.027 -3.578,2.211 -7.067,1.184 -9.539,-0.039 -15.731,4.993 -40.856,-8.961 -53.406,-30.609 -1.293,-2.25 -2.457,-4.559 -3.504,-6.891 -0.508,0.192 -0.946,0.551 -1.496,0.633 -0.399,0.059 -1.657,0.149 -2.059,0.149 -6.523,0 -12.52,-3.672 -16.035,-9.809 -10.094,-17.492 -5.399,-38.633 10.199,-53.742 -0.395,-0.348 -0.797,-0.699 -1.371,-1.199 -2.695,-2.34 -5.563,-4.121 -8.762,-5.442 -3.945,-1.617 -5.828,-6.129 -4.207,-10.058 1.227,-2.993 4.106,-4.801 7.149,-4.801 0.976,0 1.964,0.191 2.929,0.59 4.711,1.929 9.09,4.64 13.008,8.039 1.531,1.332 2.637,2.351 3.641,3.39 9.246,-5.277 19.218,-8.089 28.883,-8.089 15.804,0 29.136,7.449 36.543,20.378 5.257,9.032 2.093,17.184 -0.602,20.582 -0.313,0.391 -0.789,0.579 -1.164,0.899 1.488,2.07 2.894,4.223 4.183,6.473 8.469,14.617 11.426,33.41 7.536,47.89"
         style="fill:#ffffff;fill-opacity:1;fill-rule:nonzero;stroke:none"
         id="path24" /><path
         d="m 459.313,780.211 c -4.231,-16.969 -16.059,-28.359 -29.446,-28.359 -0.875,0 -1.754,0.046 -2.637,0.14 7.629,7.367 14.094,19.957 17.11,31.957 3.187,12.781 3.07,26.59 -0.016,36.242 7.317,-3 11.25,-8.632 13.321,-13.121 3.515,-7.64 4.113,-17.168 1.668,-26.859 z m -87.602,10.98 c -2.078,3.481 -2.488,6.02 -2.184,7.219 0.391,1.531 0.34,2.922 0.028,4.16 0.855,0.942 1.55,2.129 1.883,3.66 1.57,6.192 21.925,14.559 41.746,9.622 6.675,-1.68 12.679,-4.563 17.886,-8.071 0.485,-5.371 0.235,-12.301 -1.707,-20.082 -2.008,-7.988 -5.164,-14.34 -8.113,-18.847 -6.215,-0.61 -12.832,-0.161 -19.391,1.507 -14.293,3.582 -25.648,13.301 -30.148,20.832 z M 497.98,790.43 c -1.746,3.91 -6.332,5.64 -10.207,3.902 -3.062,-1.383 -6.402,-2.23 -9.941,-2.531 -0.754,-0.071 -1.269,-0.11 -1.797,-0.153 0.016,7.782 -1.324,15.282 -4.359,21.883 -5.367,11.649 -15.02,19.75 -27.184,22.821 -8.918,2.218 -16.726,-2.321 -19.543,-6.321 -0.316,-0.449 -0.363,-1 -0.574,-1.492 -2.422,0.871 -4.902,1.66 -7.441,2.293 -24.086,6.008 -51.375,-2.262 -59.004,-17.051 -2.321,-0.781 -5.762,-2.472 -6.668,-6.582 -1.024,-3.957 0.902,-6.929 2.746,-8.929 -0.16,-4.7 1.344,-9.809 4.449,-15 7.676,-12.84 23.246,-23.79 39.633,-27.879 2.519,-0.641 5.062,-1.071 7.601,-1.442 -0.039,-0.508 -0.246,-1 -0.179,-1.519 0.551,-4.289 4.199,-12.231 14.332,-14.75 3.32,-0.848 6.695,-1.27 10.019,-1.27 0.004,0 0.004,0 0.004,0 20.508,0 38.274,15.961 44.317,39.719 0.05,0 0.097,-0.008 0.148,-0.008 1.406,0 2.891,0.121 4.84,0.289 5.258,0.461 10.277,1.738 14.922,3.82 3.89,1.739 5.629,6.309 3.886,10.2"
         style="fill:#ffffff;fill-opacity:1;fill-rule:nonzero;stroke:none"
         id="path26" /><path
         d="m 837.859,489.82 c 8.532,-5.468 21.805,-9.05 35.954,-9.269 13.062,0 25.89,3.219 34.312,8.347 -2.371,-15.617 -18.676,-23.757 -34.719,-23.757 l -0.75,0.007 c -9.976,0.122 -19.043,3.141 -25.527,8.493 -3.809,3.14 -8.234,8.371 -9.27,16.179 z m 31.883,66.969 c 0.008,0 0.02,0 0.028,0 1.64,-0.187 3,0.293 4.156,0.902 1.125,-0.652 2.48,-1.07 4.105,-1.07 1.25,-0.012 3.602,-1.051 6.426,-3.949 6.141,-6.293 12.652,-19.774 12.445,-34.5 -0.089,-6.801 -1.492,-13.262 -3.695,-19.102 C 888.148,497.371 881.332,496 873.16,496 h -0.015 c -8.055,0.121 -14.844,1.672 -19.915,3.512 -2.078,5.957 -3.324,12.488 -3.226,19.328 0.312,20.441 13.559,37.949 19.738,37.949 z m 3.024,-107.09 c 0.269,0 0.617,0 0.64,0 28.528,0 50.215,18.383 50.457,42.711 0.16,10.461 -6.593,16.02 -10.605,17.649 -0.461,0.183 -0.945,0.101 -1.422,0.191 0.293,2.539 0.473,5.121 0.508,7.719 0.234,16.91 -6.371,34.773 -16.832,45.48 -4.203,4.301 -8.731,7.063 -13.324,8.121 -1.266,2.071 -3.657,4.961 -7.864,4.961 -4.191,0.117 -6.543,-2.472 -8.078,-4.691 -16.168,-3.348 -31.301,-27.789 -31.68,-52.781 -0.039,-2.61 0.075,-5.2 0.301,-7.77 -0.535,-0.078 -1.09,0.02 -1.605,-0.18 -4.059,-1.5 -10.957,-6.839 -11.067,-17.277 -0.16,-12.531 5.203,-23.93 15.106,-32.102 5.594,-4.621 12.5,-7.832 20.019,-9.82 -0.172,-0.488 -0.34,-0.969 -0.586,-1.668 -1.211,-3.371 -2.886,-6.402 -4.972,-8.992 -2.676,-3.328 -2.149,-8.18 1.176,-10.859 1.425,-1.149 3.136,-1.711 4.835,-1.711 2.254,0 4.497,0.992 6.02,2.879 3.164,3.941 5.68,8.461 7.48,13.472 0.68,1.899 1.133,3.309 1.493,4.668"
         style="fill:#ffffff;fill-opacity:1;fill-rule:nonzero;stroke:none"
         id="path28" /><path
         d="m 807.23,342.898 c -2.75,-4.796 -6.722,-8.378 -11.617,-10.496 2.903,9.688 2.75,23.489 -0.691,36.239 -3.258,11.879 -9.996,24.359 -17.77,31.601 14.434,1.758 27.789,-9.703 32.618,-27.5 2.984,-10.933 2.062,-21.812 -2.54,-29.844 z m -42.722,-6.867 c -14.18,-3.902 -28.863,-0.949 -36.488,3.399 -3.54,2.031 -5.149,4.062 -5.457,5.179 -0.399,1.563 -1.125,2.77 -2.02,3.711 0.285,1.231 0.312,2.621 -0.137,4.129 -1.66,6.172 11.989,23.403 31.723,28.813 6.562,1.777 13.191,2.359 19.418,1.879 3.082,-4.461 6.32,-10.7 8.473,-18.551 2.113,-7.828 2.484,-14.82 2.089,-20.199 -5.132,-3.629 -11.039,-6.602 -17.601,-8.36 z m 63.246,62.938 c -2.051,-2.727 -4.566,-5.11 -7.465,-7.071 -0.609,-0.406 -1.027,-0.687 -1.461,-0.976 -8.562,15.308 -22.859,24.949 -38.707,24.949 -3.578,0 -7.191,-0.492 -10.723,-1.449 -10.066,-2.703 -13.519,-10.711 -13.972,-15.012 -0.059,-0.558 0.164,-1.07 0.226,-1.621 -2.531,-0.418 -5.066,-0.937 -7.586,-1.629 -24.007,-6.578 -43.804,-27.168 -43.144,-43.769 -1.625,-1.789 -3.762,-4.942 -2.594,-9.051 1.07,-3.918 4.188,-5.559 6.766,-6.391 2.168,-4.179 5.988,-7.91 11.25,-10.91 8.344,-4.777 19.144,-7.289 30.117,-7.289 6.105,0 12.269,0.781 18.094,2.371 2.504,0.68 4.953,1.488 7.343,2.41 0.211,-0.441 0.254,-0.929 0.547,-1.332 2.282,-3.078 7.36,-6.668 14.145,-6.668 1.82,0 3.695,0.25 5.57,0.758 10.555,2.852 19.016,9.402 24.477,18.941 6.57,11.481 8.035,26.5 4.09,41.239 1.253,0.679 2.507,1.48 4.214,2.633 4.325,2.929 8.075,6.5 11.149,10.57 2.566,3.41 1.883,8.25 -1.527,10.82 -3.403,2.559 -8.235,1.867 -10.809,-1.523"
         style="fill:#ffffff;fill-opacity:1;fill-rule:nonzero;stroke:none"
         id="path30" /><path
         d="m 1197.84,212.012 c -2.27,-0.242 -3.85,0.14 -3.9,0.14 -1.05,1.078 -1.83,6.258 -2.25,9.028 -1.17,7.789 -3.13,20.812 -16.24,23.601 -2.58,0.578 -5.13,0.879 -7.58,0.879 -14.83,0 -23.53,-9.851 -32.75,-20.269 -1.99,-2.243 -4.09,-4.629 -6.46,-7.141 l -1.35,-1.461 c -6.33,-6.898 -15.9,-17.34 -30.71,-17.34 -4.05,0 -8.39,0.793 -12.88,2.313 -4.98,1.707 -8.47,3.847 -9.33,5.73 -1.35,2.977 1.58,10.098 3.93,15.817 4.22,10.312 11.3,27.562 -3.66,38.972 -5.19,3.899 -10.95,5.879 -17.13,5.879 -15.68,0 -28.93,-12.5 -41.73,-24.59 -1.9,-1.789 -3.79,-3.57 -5.66,-5.281 -10.261,-9.41 -22.128,-14.598 -33.417,-14.598 -13.145,0 -25.43,6.957 -35.223,19.711 -1.48,2.11 -3.867,6.028 -3.207,8.528 1.348,5.14 13.863,11.152 22.152,15.121 14.297,6.847 33.875,16.23 26.926,34.929 -10.496,28.04 -37.855,28.04 -46.848,28.04 -2.464,0 -5.035,-0.09 -7.789,-0.258 -18.91,-1.301 -33.886,5.609 -40.843,18.597 -6.442,12.012 -4.805,27.422 4.363,41.231 9.59,14.402 22.594,22.66 35.676,22.66 12.949,0 24.508,-7.969 32.5,-22.359 7.058,-12.95 18.695,-30.161 38.18,-30.149 4.57,0 9.28,0.977 14,2.938 15.35,6.312 13.11,24.441 11.13,40.449 -1.25,10.07 -2.95,23.871 0.86,28.57 0.41,0.512 1.66,2.043 7.08,2.52 2.61,0.363 5.08,0.543 7.42,0.543 7.78,0 28.47,0 28.65,-40.762 l -0.01,-5.969 c -0.07,-17.539 -0.15,-37.41 10.47,-48.082 4.95,-4.969 12.05,-7.25 19.02,-6.707 17,1.309 21.87,17.578 25.43,29.457 5.23,17.461 7.27,17.543 14.06,15.602 14.77,-4.199 18.03,-18.399 20.3,-33.84 l 1.26,-8.563 c 2.44,-17.507 4.97,-35.609 25.92,-40.316 1.21,-0.262 2.44,-0.383 3.66,-0.383 0,0 0,0 0.01,0 10.8,0 16.54,9.11 20.72,15.75 1.57,2.481 4.18,6.633 4.58,7.223 0,0 0.61,-0.102 1.83,-0.871 4.95,-3.192 12.74,-13.629 12.62,-47.379 -5.61,0.937 -11.54,1.918 -18.03,2.937 -85.55,15 -193.79,57.782 -229.356,71.832 -11.129,4.391 -11.129,4.391 -12.203,4.391 -1.136,0 -2.168,-0.492 -2.883,-1.281 l -0.003,0.008 c -0.278,-0.309 -0.497,-0.649 -0.665,-1.02 -0.16,-0.359 -0.273,-0.758 -0.312,-1.168 -0.063,-0.57 -0.004,-1.152 0.184,-1.68 2.476,-7.25 142.468,-73.941 241.388,-91.382 6.51,-1.039 12.57,-1.969 18.41,-2.848 -10.64,-29.359 -22.19,-36.852 -30.31,-37.699 z m 96.02,30.328 c 5.24,0 10.04,0.32 11.21,4.031 0.18,0.551 0.25,1.121 0.2,1.68 0.09,0.269 0.14,0.57 0.16,0.89 0.28,3.551 0.49,7.5 -50.65,16.93 0.48,18.731 -0.56,56.309 -23.31,70.938 -4.72,3.011 -9.48,4.523 -14.14,4.523 -12.97,0 -19.81,-10.852 -24.34,-18.031 -0.74,-1.192 -1.72,-2.731 -2.57,-3.949 -2.23,1.75 -3.31,6.168 -5.21,19.75 l -1.27,8.738 c -2.11,14.308 -6.49,44.101 -36.9,52.75 -3.82,1.082 -7.47,1.621 -10.86,1.621 -21.87,0 -28.03,-20.582 -31.71,-32.871 -1.32,-4.41 -3.53,-11.789 -5.81,-13.078 -3.87,3.148 -3.79,23.136 -3.75,31.668 v 6.191 c -0.17,40.551 -19.06,63.801 -51.81,63.801 -3.37,0 -6.93,-0.25 -9.98,-0.68 -9.72,-0.832 -17.29,-4.512 -22.51,-10.953 -10.02,-12.34 -7.81,-30.219 -5.86,-46.008 0.67,-5.41 1.64,-13.23 1.18,-16.851 -1.2,-0.348 -2.31,-0.532 -3.33,-0.532 -5.366,-0.007 -11.198,5.911 -17.877,18.172 -12.129,21.821 -31.371,34.34 -52.793,34.34 -20.961,0 -40.996,-12.019 -54.957,-33 -13.985,-21.031 -16.039,-45.328 -5.504,-65 10.402,-19.39 31.613,-30.969 56.73,-30.969 2.012,0 4.063,0.059 6.074,0.2 2.165,0.14 4.247,0.218 6.25,0.218 15.5,0 21.207,-4.187 24.356,-11.058 -2.883,-2.321 -9.703,-5.59 -14.445,-7.86 -14.286,-6.859 -30.473,-14.609 -34.543,-30.121 -2.313,-8.789 -0.078,-18.101 6.925,-28.109 18.508,-24.121 39.532,-29.18 53.907,-29.18 17.105,0 34.527,7.348 49.057,20.68 1.95,1.781 3.92,3.629 5.91,5.519 8.17,7.7 19.36,18.27 25.84,18.27 0.78,0 1.77,-0.148 3.11,-0.879 0.37,-1.961 -2.21,-8.25 -3.76,-12.012 -4.03,-9.847 -9.06,-22.109 -3.58,-34.187 3.71,-8.16 11.21,-14.07 22.95,-18.09 6.91,-2.352 13.75,-3.543 20.35,-3.543 24.99,0 40.38,16.781 47.78,24.84 l 1.18,1.281 c 2.49,2.641 4.77,5.211 6.91,7.629 7.23,8.18 11.2,12.453 15.4,12.453 0.03,0 0.07,0 0.1,0 0.31,-1.433 0.6,-3.332 0.81,-4.75 1.39,-9.183 4.32,-31.562 31.48,-28.762 21.91,2.29 39.07,21.711 51.16,57.391 19.89,-2.68 34.1,-4.031 42.44,-4.031"
         style="fill:#ffffff;fill-opacity:1;fill-rule:nonzero;stroke:none"
         id="path32" /><path
         d="m 598.563,1918.03 c 1.039,2.65 2.304,3.07 2.273,3.27 2.016,0 5.375,-1.13 8.344,-2.12 4.32,-1.45 8.789,-2.95 13.586,-2.95 7.484,0 12.039,3.65 14.629,6.81 12.394,15.5 6.511,30.42 0.82,44.85 -0.942,2.38 -1.93,4.9 -2.938,7.61 l -0.672,1.79 c -5.468,14.42 -9.539,29.79 5.383,44.86 5.223,4.92 8.059,5.44 9.039,5.44 3.219,0 8.215,-5.79 12.227,-10.44 6.426,-7.45 14.43,-16.73 26.312,-16.73 3.215,0.01 6.418,0.71 9.286,1.99 25.359,10.6 16.461,39.95 10.566,59.38 -0.887,2.91 -1.754,5.77 -2.594,8.78 -4.199,13.93 -3.316,26.51 2.555,36.38 6.094,10.23 17.539,17.34 32.734,20.5 1.457,0.25 2.793,0.38 4.02,0.38 3.07,0 3.91,-0.84 4.187,-1.12 3.676,-3.71 3.571,-17.33 3.5,-26.35 -0.117,-15.83 -0.281,-37.52 19.133,-39.29 26.629,-2.66 39.18,16.9 48.035,36.18 7.262,16.93 20.36,27.03 35.02,27.03 13.058,0 25.461,-8.12 33.176,-21.71 8.711,-15.39 10.023,-30.76 3.601,-42.18 -5.906,-10.5 -17.773,-16.55 -33.109,-17.02 -36.883,-0.16 -45.906,-18.86 -46.988,-34.69 -0.915,-16.53 16.574,-22.56 30.621,-27.41 9.027,-3.11 21.402,-7.38 23.921,-12.68 0.301,-0.63 1.211,-2.55 -0.703,-7.81 -5.882,-18.27 -16.621,-20.39 -24.191,-20.39 -7.543,0 -16.895,2.56 -26.824,7.29 l -3.934,1.99 c -12.383,6.29 -26.41,13.42 -38.859,13.42 -10.489,0 -18.692,-5.02 -23.231,-14.41 -7.035,-15.52 5.66,-27.59 14.059,-35.59 4.152,-3.95 10.426,-9.93 10.5,-13.07 0.027,-1.21 -1.195,-3.22 -3.574,-5.71 -4.52,-5.09 -9.926,-7.46 -17.024,-7.46 -7.367,0 -15.078,2.58 -20.707,4.47 l -9.547,3.17 c -8.808,2.99 -16.414,5.57 -23.949,5.57 -8.816,0 -16.137,-3.6 -21.644,-10.53 -8.383,-10.24 -1.61,-21.62 2.433,-28.42 1.262,-2.12 3.27,-5.49 3.801,-7.31 -0.227,-0.17 -0.543,-0.4 -0.973,-0.66 -2.379,-1.33 -5.515,-2.01 -9.324,-2.01 -11.91,0 -26.41,6.29 -36.266,11.3 8.243,9.7 18.864,22.49 32.7,39.48 51.425,62.91 133.265,134.02 169.437,162.9 l 0.942,0.66 c 14.05,9.92 14.05,9.92 14.238,12.11 l 0.121,1.54 -2.141,2.69 h -1.882 c -1.508,0 -2.344,0 -15.915,-10.82 -31.23,-22.06 -125.855,-88.92 -180.609,-155.72 -14.383,-17.67 -24.906,-31.25 -32.617,-41.77 -23.641,24.68 -23.434,38.37 -20.984,44.53 z m 1.238,-82.04 1.453,-2.23 0.211,-1.29 h 3.625 c 1.652,0 3.461,0.03 14.496,12.04 14.34,-7.73 33.734,-16.55 51.953,-16.55 7.852,0 14.816,1.69 20.859,5.1 6.45,3.77 10.512,8.73 12.067,14.75 2.555,9.89 -2.688,18.71 -6.52,25.14 -0.66,1.11 -1.515,2.55 -2.179,3.78 3.234,0.96 10.054,-1.48 18,-4.18 l 9.617,-3.19 c 6.738,-2.26 16.922,-5.67 28.066,-5.67 13.809,0 25.367,5.13 34.043,14.92 6.617,6.89 9.883,14.28 9.711,21.94 -0.293,12.76 -9.933,21.94 -17.687,29.32 -2.926,2.78 -7.692,7.32 -8.715,9.59 0.281,0.38 0.676,0.47 1.918,0.47 6.898,0 18.801,-6.05 28.363,-10.91 l 4.254,-2.15 c 40.281,-19.19 71.953,-8.24 83.094,26.38 3.39,9.26 3.293,17.77 -0.282,25.29 -6.695,14.08 -22.949,19.68 -37.285,24.63 -4.902,1.69 -12.008,4.15 -14.875,6.05 0.657,4.76 3.668,10.91 24.098,10.99 23.723,0.73 43,11.24 52.891,28.83 10.492,18.66 9.164,42.33 -3.641,64.96 -11.891,20.94 -31.824,33.44 -53.328,33.44 -24.223,0 -45.274,-15.34 -56.188,-40.78 -8.625,-18.77 -14.894,-22.62 -22.191,-22.66 -0.734,3.71 -0.684,11.05 -0.645,16.19 0.118,15.13 0.25,32.29 -10.222,42.83 -3.61,3.64 -10.117,7.98 -20.629,7.98 -2.512,0 -5.195,-0.25 -8.352,-0.8 -22.097,-4.58 -38.804,-15.44 -48.308,-31.41 -9.285,-15.61 -10.953,-34.59 -4.899,-54.66 0.817,-2.94 1.739,-5.98 2.676,-9.07 4.77,-15.73 8.266,-28.94 2.527,-31.49 -1.91,0.51 -6.336,5.64 -8.984,8.71 -7.098,8.23 -15.938,18.48 -29.766,18.48 -8.379,0 -16.527,-3.85 -25.203,-12.03 -26.969,-27.21 -15.695,-56.96 -10.875,-69.65 l 0.614,-1.64 c 1.054,-2.85 2.105,-5.52 3.101,-8.04 4.824,-12.24 5.887,-16.19 4.172,-19.62 -1.348,0.37 -3.027,0.93 -4.305,1.36 -4.64,1.56 -9.906,3.32 -15.695,3.32 -6.281,0 -17.734,-2.34 -23.824,-17.94 -8.18,-20.57 1.738,-44.95 29.218,-72.43 -8.441,-13.66 -7.23,-16.41 -6.429,-18.1"
         style="fill:#ffffff;fill-opacity:1;fill-rule:nonzero;stroke:none"
         id="path34" /><path
         d="m 690.758,504.289 c -7.668,0 -15.059,-2.629 -23.617,-5.668 -2.485,-0.879 -5.121,-1.82 -7.844,-2.723 l -2.356,-0.777 c -5.339,-1.781 -12.648,-4.223 -20.402,-4.223 -9.41,0 -17.391,3.711 -23.984,10.872 -3.352,4.062 -5.145,7.652 -4.91,9.832 0.359,3.39 6.261,8.078 11.007,11.847 9.036,7.172 22.68,18.012 16.098,34.961 -2.555,6.781 -9.699,18.149 -28.859,18.149 -9.676,0 -20.114,-2.719 -30.207,-5.36 -2.934,-0.769 -5.821,-1.519 -8.864,-2.238 -5.183,-1.359 -10.222,-2.051 -14.98,-2.051 -22.11,0 -36.348,14.199 -40.07,39.809 -0.508,3.871 -0.204,6.781 0.847,7.972 0.977,1.11 4.246,2.989 15.156,2.989 3.782,0 7.672,-0.211 11.457,-0.391 3.961,-0.207 7.825,-0.391 11.375,-0.391 17.426,0 27.032,6.051 28.481,17.563 4.547,27.769 -16.418,40.969 -34.559,49.059 -15.793,8.261 -25.187,21.71 -25.14,35.96 0.047,13.5 8.25,25.45 22.511,32.801 18.747,9.629 38.09,8.61 48.594,-2.422 6.535,-6.847 9.664,-17.07 9.043,-30.289 0.485,-28.48 11.621,-44.34 33.578,-47.238 l 1.766,-0.07 c 15.281,0 21.476,15.777 26.941,29.699 4.172,10.609 9.352,23.809 15.797,23.809 1.422,0 3.227,-0.438 5.446,-1.348 9.402,-3.68 15.183,-8.703 17.667,-15.352 3.356,-8.961 0.981,-21.648 -6.761,-36.429 l -2.145,-3.86 c -8.519,-15.261 -18.176,-32.562 -13.816,-47.261 1.871,-6.29 6.109,-11.34 12.344,-14.622 3.148,-1.628 6.488,-2.457 9.929,-2.457 10.828,0 19.074,8 26.344,15.051 4.063,3.938 10.195,9.887 13.156,9.887 0.785,0 2.532,-0.93 5.391,-4.07 10.867,-10.618 7.051,-23.977 1.801,-37.887 l -3.243,-8.68 c -5.898,-15.601 -12,-31.742 2.719,-45.98 3.309,-3.043 7.457,-4.653 12.008,-4.653 h 0.004 c 6.07,0 11.516,2.891 16.324,5.442 2.403,1.269 6.43,3.398 6.969,3.738 0,-0.008 0.465,-0.379 1.309,-1.91 2.296,-3.91 5.355,-16.238 -12.821,-47.43 -9.219,8.66 -21.137,19.699 -36.844,34.102 -43.89,38.969 -97.5,100.371 -159.328,182.508 -6.922,9.203 -6.922,9.203 -8.972,9.203 -0.473,0 -0.942,-0.09 -1.383,-0.25 -1.254,-0.481 -2.215,-1.653 -2.461,-2.981 -1.383,-7.539 83.801,-137.562 158.043,-203.679 14.812,-13.582 27.476,-24.641 38.09,-33.34 -14.313,-12.043 -26.547,-18.223 -36.41,-18.223 -2.465,0.012 -4.688,0.402 -6.524,1.121 -2.086,0.871 -2.949,1.621 -3.012,1.629 -0.32,1.5 1.567,6.359 2.582,8.961 2.848,7.309 7.61,19.531 -1.937,28.32 -6.133,5.95 -13.313,8.969 -21.328,8.969 z m 30.219,-72.16 h 0.003 c 22.629,0 44.059,16.93 55.227,26.961 8.297,-5.738 14.191,-8.719 17.492,-8.719 2.844,0 4.129,1.68 4.547,2.41 0.078,0.141 0.149,0.289 0.211,0.449 0.52,0.469 0.922,1.02 1.106,1.579 0.691,2.14 1.027,3.589 -12.153,16.683 8.203,13.317 30.438,50.36 15.774,75.379 -6.09,10.949 -14.512,13.258 -20.504,13.258 -7.215,0 -13.614,-3.387 -18.75,-6.129 -0.992,-0.508 -2.242,-1.18 -3.309,-1.719 -0.68,2.61 0.527,7.039 4.774,18.27 l 3.25,8.691 c 4.578,12.129 15.308,40.547 -6.77,62.11 -6.695,7.418 -14.125,11.187 -22.094,11.187 -12.343,0 -21.734,-9.098 -29.277,-16.418 -3.121,-3.019 -8.336,-8.082 -10.246,-8.129 -2.43,4.02 8.277,23.199 11.797,29.5 l 2.32,4.18 c 11.152,21.308 13.863,39.988 8.051,55.519 -4.848,12.981 -15.254,22.661 -30.707,28.719 -4.86,2.012 -9.606,3.031 -14.102,3.031 -22.234,0 -30.972,-22.261 -37.351,-38.511 -1.914,-4.871 -4.684,-11.918 -6.735,-14.739 -4.636,0.989 -10.5,4.45 -10.843,23.508 0.921,18.961 -4.411,35.082 -15.422,46.641 -17.469,18.34 -48.164,21.351 -75.965,7.031 -21.891,-11.269 -35.008,-31.191 -35.078,-53.312 -0.078,-23.067 13.968,-44.227 38.211,-56.879 19.761,-8.84 22.582,-15.36 22.058,-22.282 -2.426,-0.367 -9.312,-0.328 -16.097,0.024 -4.168,0.207 -8.457,0.418 -12.622,0.418 -10.722,0 -24.117,-1.238 -32.57,-10.871 -5.687,-6.477 -7.84,-15.321 -6.379,-26.418 5.364,-36.891 29.512,-59.801 63.016,-59.801 6.723,0 13.73,0.941 20.566,2.73 2.953,0.692 6.028,1.489 9.137,2.309 8.676,2.27 17.652,4.609 24.348,4.609 5.996,0 6.625,-1.668 7.339,-3.257 -0.562,-1.871 -5.832,-6.051 -8.984,-8.551 -8.133,-6.461 -18.262,-14.5 -19.637,-27.551 -0.933,-8.809 2.36,-17.648 10.469,-27.469 11.477,-12.5 25.426,-18.828 41.461,-18.828 11.52,0 21.277,3.258 27.738,5.406 l 2.203,0.731 c 2.985,0.98 5.782,1.98 8.418,2.922 6.543,2.32 12.188,4.32 15.86,4.32 1,0 2.015,-0.082 3.414,-0.992 -0.449,-1.438 -1.184,-3.32 -1.731,-4.719 -3.203,-8.219 -11.699,-30.051 13.372,-40.5 4.757,-1.84 9.863,-2.769 15.164,-2.781"
         style="fill:#ffffff;fill-opacity:1;fill-rule:nonzero;stroke:none"
         id="path36" /><path
         d="m 350.914,990.23 c -1.633,7.372 -0.402,9.94 0.016,10.54 1.75,2.58 9.465,3.83 15.093,4.74 10.836,1.75 28.973,4.67 30.907,23.27 2.343,26.6 -25.602,34.17 -46,39.69 -2.496,0.67 -4.969,1.35 -7.395,2.05 -14.062,4 -24.773,12.02 -30.176,22.58 -5.375,10.5 -5.507,23.55 -0.632,37.07 3.031,7.03 5.543,7.03 6.621,7.03 5.656,0 15.125,-6.05 22.73,-10.91 9.676,-6.17 18.817,-12.01 28.016,-12.01 6.152,0 11.629,2.65 15.699,7.84 18.637,25.77 0.699,51.27 -5.113,59.54 -10.235,14.91 -12.36,30.57 -5.832,42.97 6.047,11.47 18.57,18.06 34.367,18.06 l 1.973,-0.03 c 17.679,-0.64 32.089,-8.07 38.542,-19.87 5.731,-10.47 4.641,-23.41 -3.132,-36.57 -5.618,-9.76 -22.707,-39.48 4.218,-57.82 3.215,-2.35 7.055,-3.6 11.086,-3.6 h 0.008 c 9.863,0.01 18.512,6.97 28.524,15.03 7.257,5.85 17.195,13.86 23.117,13.86 0.851,0 2.855,0 6.429,-4.77 6.961,-8.14 9.946,-15.81 8.868,-22.8 -1.407,-9.1 -9.668,-18.59 -23.852,-27.42 l -4.883,-2.97 c -15.136,-9.15 -32.293,-19.52 -35.226,-34.5 -1.278,-6.5 0.304,-12.97 4.461,-18.55 3.117,-4.33 9.07,-9.49 19.715,-9.49 6.05,0 12.203,1.63 18.148,3.21 4.902,1.3 9.973,2.64 13.703,2.64 2.566,0 4.418,0 6.149,-6.21 3.968,-14.38 -6.208,-24.32 -17.915,-34.068 l -6.625,-5.543 c -13.261,-10.989 -26.964,-22.348 -20.281,-42.36 4.395,-12.429 17.621,-12.609 25.524,-12.711 2.468,-0.027 6.406,-0.089 8.234,-0.578 0.039,-0.308 0.063,-0.73 0.055,-1.3 -0.141,-5.719 -4.899,-17.532 -33.297,-34.731 -3.903,11.813 -9.102,26.77 -16.149,46.141 -26.527,76.01 -41.535,180.98 -47.949,225.81 -3.457,24.16 -3.457,24.16 -7.211,24.16 l -3.191,-1.65 c -3.68,-5.17 4.297,-155.84 38.719,-254.871 7.242,-19.918 13.05,-35.059 17.824,-46.848 -6.164,-1.301 -14.258,-2.64 -22.36,-2.64 -12.066,0 -20.378,2.871 -24.703,8.539 -1.609,2.121 -1.8,3.16 -1.832,3.16 0.418,1.441 4.285,4.691 6.364,6.441 5.945,4.989 15.882,13.36 11.507,25.809 -6.218,18.64 -21.941,21.359 -37.144,24 -2.895,0.512 -5.965,1.039 -9.231,1.711 l -1.918,0.379 c -14.921,2.929 -29.879,7.55 -34.57,28.55 z m 31.84,-51.628 c 3.484,-0.711 6.797,-1.282 9.918,-1.832 12.246,-2.122 16.18,-3.25 18.109,-6.29 -1.015,-0.96 -2.383,-2.101 -3.418,-2.968 -6.597,-5.551 -24.117,-20.282 -8.043,-41.391 8.942,-11.711 23.45,-17.641 43.121,-17.641 12.504,0 24.379,2.418 31.684,4.161 8.297,-17.61 11.078,-17.762 13.184,-17.762 1.382,0 2.629,0.621 3.468,1.66 l 1.633,0.859 c 1.008,1.454 2.363,3.563 -2.601,21.383 15.168,8.59 48.742,29.309 49.406,56.981 0.144,7.457 -1.969,13.508 -6.285,17.968 -7.106,7.34 -17.364,7.481 -24.86,7.579 -1.269,0.023 -2.902,0.043 -4.293,0.121 0.504,2.64 3.7,5.812 13.528,13.961 l 6.672,5.578 c 10.929,9.101 33.691,28.041 25.402,58.051 -4.152,14.95 -14.262,23.18 -28.465,23.18 -6.742,0 -13.59,-1.81 -19.629,-3.41 -4.515,-1.19 -9.191,-2.43 -12.226,-2.43 -0.946,0 -1.305,0.13 -1.442,0.42 0.821,4.83 17.403,14.85 24.485,19.13 l 5.093,3.1 c 20.422,12.71 32.043,27.37 34.543,43.58 2.157,13.95 -2.601,27.88 -13.652,40.76 -8.281,11.16 -17.914,13.51 -24.535,13.51 -14.094,0 -26.61,-10.09 -37.653,-18.99 -4.156,-3.35 -10.207,-8.22 -13.093,-9.58 -3.797,2.88 -6.852,7.74 3.8,26.27 11.852,20.05 13.114,41.69 3.45,59.35 -10.414,19.04 -32.11,30.96 -58.059,31.89 l -2.781,0.05 c -24.317,0 -44.824,-11.38 -54.86,-30.43 -10.511,-19.96 -7.812,-44.96 7.301,-66.97 11.879,-16.9 10.239,-25.04 6.84,-30.6 -3.473,1.27 -9.641,5.22 -13.949,7.97 -10.676,6.82 -22.774,14.54 -35.199,14.54 -8.59,0 -20.403,-3.65 -28.149,-21.66 -7.371,-20.36 -6.84,-39.78 1.539,-56.16 8.356,-16.33 24.141,-28.52 44.414,-34.3 2.512,-0.72 5.106,-1.42 7.727,-2.13 16.781,-4.54 29.57,-8.55 29.305,-14.78 -1.465,-1.28 -7.961,-2.33 -11.844,-2.95 -10.344,-1.67 -23.207,-3.75 -30.578,-14.59 -4.965,-7.31 -6.102,-16.661 -3.461,-28.591 8.387,-37.539 39.453,-43.648 52.719,-46.238 l 1.734,-0.359"
         style="fill:#ffffff;fill-opacity:1;fill-rule:nonzero;stroke:none"
         id="path38" /><path
         d="m 360.453,1543.14 c 2.848,9.6 5.735,9.6 7.113,9.6 3.45,0 8.457,-1.83 13.297,-3.59 6.293,-2.29 12.797,-4.66 19.528,-4.66 0,0 0,0 0.004,0 7.796,0 14.335,3.24 18.671,9.06 17.305,21.57 -4.675,42.86 -19.222,56.95 -2.168,2.11 -4.313,4.18 -6.469,6.37 -10.746,10.52 -16.367,22.75 -15.832,34.45 0.539,11.6 7.102,22.84 18.973,32.48 3.875,3.14 6.035,3.48 6.781,3.48 4.91,0 12.211,-13.4 16.57,-21.4 7.125,-13.08 14.492,-26.6 27.988,-26.6 h 0.004 c 2.672,0 5.321,0.59 7.36,1.52 27.945,11.05 25.636,39.67 24.39,55.06 -1.164,14.13 2.411,26.48 10.063,34.79 11.129,12.08 30.141,13.53 47.012,3.27 15.109,-9.21 24.004,-22.65 23.796,-35.94 -0.187,-11.87 -7.621,-22.57 -20.906,-30.12 -32.777,-18.55 -29.094,-41.05 -23.746,-53.33 2.555,-5.17 8.336,-11.33 21.379,-11.33 5.82,0 12.145,1.12 18.84,2.3 6.414,1.14 13.047,2.3 18.601,2.3 9.254,0 10.7,-2.71 11.622,-8.52 1.668,-10.23 0.238,-18.26 -4.243,-23.86 -5.867,-7.34 -17.636,-11.74 -33.839,-12.71 l -4.399,-0.18 c -17.621,-0.66 -37.598,-1.42 -47.996,-12.74 -4.414,-4.81 -6.574,-10.98 -6.215,-18.25 1.445,-16.97 18.426,-21.32 29.656,-24.2 17.793,-4.55 17.371,-6.32 15.789,-12.96 -3.39,-14.55 -17.058,-18.25 -31.964,-21.04 l -9.254,-1.8 c -16.532,-3.17 -33.617,-6.46 -37.489,-26.74 -2.437,-13.07 9.043,-19.7 15.911,-23.67 2.074,-1.19 5.355,-3.09 6.734,-4.39 -0.117,-0.27 -0.289,-0.61 -0.543,-1.04 -3.137,-5.07 -13.363,-13.34 -46.461,-14.47 2.578,12.71 5.777,29.31 9.902,51.25 13.575,78.18 52.196,176.26 68.684,218.14 9.355,23.77 9.355,23.77 6.852,26.24 -0.68,0.54 -1.567,0.85 -2.434,0.85 -9.336,0 -76.648,-145.42 -93.395,-241.21 -4.253,-22.63 -6.925,-39.57 -8.578,-52.48 -31.101,9.94 -37.312,21.42 -38.093,27.74 -0.364,2.71 0.031,3.69 0.015,3.69 1.031,1.08 6.11,2.05 8.836,2.57 7.609,1.45 20.352,3.89 22.758,16.87 3.785,19.56 -8.887,29.74 -21.137,39.58 -2.16,1.74 -4.445,3.57 -6.797,5.56 l -1.414,1.19 c -11.73,9.85 -22.679,21.2 -16.703,41.92 z m 1.813,-59.66 1.324,-1.12 c 2.531,-2.14 4.969,-4.1 7.265,-5.94 10.043,-8.07 12.961,-11.01 13.125,-14.69 -1.386,-0.35 -3.21,-0.7 -4.582,-0.96 -8.457,-1.61 -30.921,-5.91 -27.484,-31.96 2.656,-21.37 22.582,-37.54 58.891,-48.25 -0.563,-14.12 1.429,-16.67 2.41,-17.85 0.816,-0.99 2.797,-2.01 4.207,-1.82 0.41,-0.15 0.797,-0.23 1.183,-0.22 2.625,0 4.25,0.26 8.325,17.27 16.57,0.08 56.297,1.47 71.261,25.71 3.883,6.45 5.063,12.77 3.497,18.81 -2.547,9.88 -11.411,15 -17.879,18.73 -1.055,0.61 -2.399,1.39 -3.536,2.11 1.739,1.96 5.997,3.2 17.903,5.49 l 9.137,1.78 c 12.917,2.41 43.156,8.07 50.253,38.5 7.274,30.52 -19.652,37.41 -32.589,40.72 -3.883,0.99 -10.196,2.61 -12.25,4.08 0.039,0.15 0.086,0.21 0.132,0.26 3.86,4.2 22.039,4.88 31.805,5.26 l 4.715,0.18 c 23.453,1.41 40.523,8.6 50.738,21.38 8.75,10.94 11.781,25.09 9.024,42.01 -1.664,10.46 -8.356,28.01 -34.493,28.01 -7.582,0 -15.578,-1.41 -22.628,-2.65 -5.668,-1 -11.02,-1.95 -14.813,-1.95 -0.488,0 -0.894,0.02 -1.223,0.04 -1.554,4.61 -1.671,11.86 15.012,21.3 20.43,11.61 32.328,29.8 32.641,49.91 0.343,21.58 -12.703,42.54 -34.907,56.09 -26.257,15.96 -57.64,12.66 -76.093,-7.37 -12.09,-13.12 -17.813,-31.72 -16.114,-52.36 1.665,-20.65 -1.058,-27.18 -7.949,-30.78 -2.426,2.86 -5.918,9.27 -8.363,13.76 -8.133,14.92 -18.242,33.49 -36.914,33.49 -7.098,0 -14.281,-2.91 -21.379,-8.66 -17.152,-13.94 -26.668,-31.03 -27.516,-49.41 -0.843,-18.38 7.243,-36.87 22.614,-51.91 2.129,-2.16 4.406,-4.37 6.711,-6.6 11.699,-11.34 21.07,-21.1 16.664,-26.22 -2.641,0 -7.399,1.74 -11.598,3.26 -6.414,2.34 -13.691,4.99 -21.227,4.99 -9.832,0 -22.902,-4.54 -29.343,-26.26 -10.684,-37.01 13.652,-57.44 24.043,-66.16"
         style="fill:#ffffff;fill-opacity:1;fill-rule:nonzero;stroke:none"
         id="path40" /><path
         d="m 2296.55,1854.65 c 6.62,-7.66 18.34,-14.96 30.94,-18.93 7.52,-2.34 15.46,-3.57 22.95,-3.57 3.15,0 8.27,0.24 13.22,1.51 -4.46,-9.37 -14.22,-14.85 -26.82,-14.85 -4.58,0 -9.29,0.75 -14,2.23 -9.51,2.95 -17.33,8.43 -22.02,15.42 -2.75,4.11 -5.51,10.4 -4.27,18.19 z m 19.93,24.28 c 6.18,19.57 23.96,32.52 29.9,30.69 1.53,-0.5 2.93,-0.52 4.17,-0.28 0.89,-0.91 2.05,-1.7 3.58,-2.2 1.19,-0.37 3.15,-2.05 5.03,-5.63 4.08,-7.77 6.47,-22.53 2.06,-36.62 -2,-6.45 -5.18,-12.22 -8.95,-17.21 -0.63,-0.02 -1.16,-0.09 -1.83,-0.09 -5.96,0 -12.31,1 -18.33,2.87 -7.77,2.45 -13.89,5.92 -18.22,9.17 -0.26,6.27 0.57,12.87 2.59,19.3 z m -12.1,-66.21 c -0.3,-0.42 -0.6,-0.82 -1.03,-1.42 -2.17,-2.93 -4.64,-5.35 -7.33,-7.2 -3.52,-2.41 -4.42,-7.22 -2.01,-10.73 1.5,-2.19 3.92,-3.35 6.38,-3.35 1.5,0 3.03,0.43 4.36,1.35 4.11,2.82 7.81,6.42 11.03,10.76 1.21,1.65 2.05,2.87 2.78,4.09 6.08,-1.87 12.23,-2.85 18.28,-2.85 20.87,0 37.32,11.17 42.91,29.13 3.11,10 -1.77,17.24 -5.15,19.95 -0.39,0.3 -0.89,0.37 -1.32,0.6 1.01,2.36 1.92,4.77 2.68,7.25 5.07,16.15 3.83,35.15 -3.13,48.39 -2.81,5.35 -6.38,9.31 -10.43,11.6 -0.61,2.35 -2.07,5.78 -5.98,6.94 -3.97,1.36 -7.12,-0.41 -9.26,-2.14 -16.41,1.29 -37.89,-17.69 -45.4,-41.52 -0.78,-2.5 -1.42,-5.01 -1.94,-7.53 -0.51,0.07 -1.01,0.32 -1.54,0.27 -4.32,-0.26 -12.49,-3.37 -15.59,-13.35 -3.73,-11.98 -1.85,-24.44 5.31,-35.11 4.04,-6.03 9.74,-11.08 16.38,-15.13"
         style="fill:#ffffff;fill-opacity:1;fill-rule:nonzero;stroke:none"
         id="path42" /><path
         d="m 2205.66,1720.39 c 5.71,8.67 9.27,22.07 9.56,34.93 0.28,13.17 -2.88,26.59 -8,35.32 14.22,-2.48 23.88,-16.82 23.43,-35.69 -0.41,-18.81 -10.74,-32.81 -24.99,-34.56 z m -28.87,12.28 c -14.71,0.32 -27.93,7.31 -34,13.66 -2.81,2.95 -3.78,5.35 -3.75,6.51 0.06,1.61 -0.29,2.98 -0.89,4.14 0.63,1.09 1.04,2.41 1.04,3.98 0.17,6.39 18.29,19 38.61,18.59 6.9,-0.16 13.38,-1.64 19.21,-3.93 1.65,-5.13 2.94,-11.94 2.78,-19.96 -0.19,-8.24 -1.87,-15.12 -3.82,-20.19 -5.87,-1.95 -12.41,-2.96 -19.18,-2.8 z m 69.26,21.63 c 1.38,0.31 2.83,0.71 4.81,1.34 4.96,1.59 9.56,3.93 13.65,6.94 3.44,2.53 4.18,7.36 1.65,10.8 -2.53,3.43 -7.36,4.18 -10.79,1.65 -2.75,-2.03 -5.87,-3.61 -9.21,-4.68 -0.73,-0.24 -1.25,-0.39 -1.76,-0.55 -4.81,21.17 -20.52,36.17 -41.23,36.66 -10.07,0 -15.45,-6.59 -17.04,-10.49 -0.2,-0.5 -0.13,-1.04 -0.22,-1.56 -2.56,0.31 -5.15,0.52 -7.77,0.58 -25.06,0.49 -49.7,-13.56 -53.8,-29.67 -2.09,-1.28 -5.05,-3.7 -5.04,-7.93 -0.11,-4.05 2.41,-6.52 4.65,-8.05 0.88,-4.62 3.49,-9.29 7.67,-13.67 10.34,-10.83 27.93,-18.07 44.83,-18.44 0.58,-0.01 1.16,-0.02 1.73,-0.02 2.01,0 3.99,0.12 5.96,0.27 0.08,-0.49 -0.02,-1 0.16,-1.48 1.49,-4.08 6.8,-11.02 17.22,-11.22 0.07,0 1.02,-0.02 1.09,-0.02 24.47,0 42.7,20.84 43.44,49.54"
         style="fill:#ffffff;fill-opacity:1;fill-rule:nonzero;stroke:none"
         id="path44" /><path
         d="m 2299.98,1334.93 c -0.98,3.95 -0.62,6.51 0,7.54 0.84,1.36 1.2,2.71 1.26,3.99 1.1,0.64 2.11,1.59 2.87,2.97 3.31,5.44 25.19,7.49 42.77,-3.04 5.83,-3.51 10.83,-7.88 14.77,-12.72 -1.09,-5.31 -3.37,-11.97 -7.55,-18.95 -4.27,-7.04 -9.14,-12.17 -13.35,-15.61 -6.09,1.22 -12.25,3.59 -18.02,7.06 -12.63,7.61 -20.65,20.25 -22.75,28.76 z m 86.83,-9.93 c 1.11,-8.33 -1.11,-17.63 -6.28,-26.2 -9.38,-15.62 -25.77,-23.22 -38.94,-17.57 8.96,4.54 18.77,14.02 25.73,25.52 6.79,11.33 10.72,24.56 10.59,34.69 6.11,-5 8.23,-11.54 8.9,-16.44 z m -56.47,-55.3 c 6.41,-3.89 13.37,-5.86 20.7,-5.86 16.51,0 32.4,10.01 42.55,26.75 1.37,-0.42 2.83,-0.77 4.85,-1.2 3.33,-0.72 6.66,-1.07 9.96,-1.07 1.79,0 3.55,0.11 5.31,0.31 4.24,0.5 7.27,4.34 6.77,8.57 -0.5,4.25 -4.42,7.28 -8.57,6.77 -3.37,-0.4 -6.8,-0.21 -10.26,0.51 -0.75,0.16 -1.26,0.28 -1.78,0.39 2.3,7.45 3.21,15 2.24,22.19 -1.72,12.73 -8.57,23.3 -19.33,29.79 -3.28,1.98 -6.73,2.97 -10.23,2.97 -5.75,0 -9.57,-2.73 -10.27,-3.29 -0.44,-0.34 -0.65,-0.85 -1,-1.27 -2.06,1.55 -4.2,3.01 -6.44,4.36 -21.33,12.8 -49.83,12.9 -61.44,0.95 -2.44,-0.07 -6.2,-0.7 -8.33,-4.36 -2.12,-3.48 -1.15,-6.87 0.04,-9.32 -1.53,-4.46 -1.57,-9.79 -0.13,-15.66 3.59,-14.53 15.28,-29.56 29.78,-38.28 2.21,-1.34 4.49,-2.54 6.79,-3.63 -0.16,-0.45 -0.5,-0.83 -0.57,-1.32 -0.72,-4.28 0.45,-12.93 9.36,-18.3"
         style="fill:#ffffff;fill-opacity:1;fill-rule:nonzero;stroke:none"
         id="path46" /><path
         d="m 2552.85,1372.72 c 1.11,-1.28 2.36,-2.05 3.62,-2.48 0.33,-1.25 0.96,-2.51 2.07,-3.71 0.85,-0.9 1.73,-3.31 1.61,-7.35 -0.26,-8.77 -5.44,-22.8 -16.22,-32.9 -4.89,-4.63 -10.39,-8.24 -16.08,-10.7 -5,2.55 -10.87,6.62 -16.34,12.42 -5.56,5.95 -9.19,11.98 -11.37,16.95 2.84,5.55 6.81,10.88 11.77,15.54 14.94,14.01 36.76,16.61 40.94,12.23 z m -63.87,-65.79 c -7.7,8.18 -11.96,18.16 -11.68,27.39 0.17,5.52 1.98,10.55 5.29,14.74 1.97,-9.92 8.51,-21.83 17.66,-31.63 9.09,-9.64 20.73,-16.96 30.49,-19.54 -11.72,-8.23 -29.32,-4.2 -41.76,9.04 z m 6.99,59.21 c -0.43,0.35 -0.75,0.8 -1.25,1.05 -0.71,0.34 -3.31,1.46 -6.96,1.46 -3.35,0 -8.36,-0.95 -13.14,-5.49 -8.01,-7.52 -12.42,-17.34 -12.75,-28.38 -0.27,-8.72 2.18,-17.74 6.82,-26.06 -0.46,-0.21 -0.9,-0.42 -1.55,-0.71 -3.15,-1.44 -6.49,-2.33 -9.92,-2.67 -4.24,-0.42 -7.35,-4.2 -6.93,-8.44 0.39,-3.99 3.75,-6.97 7.68,-6.97 0.25,0 0.51,0.02 0.77,0.04 5.13,0.51 10.1,1.85 14.76,3.97 1.87,0.84 3.22,1.49 4.47,2.19 10.9,-11.5 24.94,-18.11 38.6,-18.11 10.46,0 20.01,3.8 27.61,10.97 7.62,7.15 6.92,15.87 5.31,19.9 -0.18,0.46 -0.57,0.75 -0.84,1.16 2.02,1.55 4,3.21 5.87,4.99 12.35,11.57 20.62,28.72 21.07,43.68 0.17,6.03 -1,11.21 -3.4,15.22 0.6,2.33 1.03,6.03 -1.8,9.01 -2.78,3.11 -6.4,3.12 -9.08,2.67 -13.65,9.3 -41.72,3.22 -59.96,-13.87 -1.91,-1.79 -3.69,-3.66 -5.38,-5.61"
         style="fill:#ffffff;fill-opacity:1;fill-rule:nonzero;stroke:none"
         id="path48" /><path
         d="m 2286.86,823.871 c -6.98,-4.031 -14.39,-6.16 -21.44,-6.16 -8.88,0 -16.23,3.359 -21.1,9.598 10.17,-0.477 23.5,3.41 34.84,9.933 11.58,6.727 21.29,16.25 26.04,25.168 5.96,-14.922 -4.19,-30.371 -18.34,-38.539 z m -53.01,70.609 c 1.05,3.93 2.59,5.989 3.66,6.61 1.37,0.781 2.32,1.769 2.99,2.851 1.28,0.028 2.63,0.36 3.97,1.2 5.45,3.14 25.68,-5.602 35.94,-23.332 3.41,-5.93 5.67,-12.188 6.77,-18.297 -3.53,-4.114 -8.73,-8.821 -15.74,-12.903 -7.03,-4.027 -14.03,-6.058 -19.54,-7 -4.61,3.981 -8.77,8.973 -12.07,14.723 -7.37,12.738 -8.27,27.668 -5.98,36.148 z m 83.05,-20.91 c -3.52,6.149 -9.52,9.821 -16.04,9.821 -0.41,0 -1.66,-0.09 -2.06,-0.149 -0.56,-0.082 -0.99,-0.441 -1.5,-0.633 -1.05,2.332 -2.22,4.653 -3.52,6.911 -12.45,21.531 -37.33,35.332 -53.29,30.57 -2.19,1.129 -5.8,2.441 -9.33,0.23 -3.58,-1.988 -4.38,-5.461 -4.54,-8.179 -3.49,-3.149 -6.12,-7.789 -7.69,-13.641 -3.89,-14.48 -0.93,-33.281 7.53,-47.871 1.29,-2.258 2.7,-4.418 4.19,-6.5 -0.37,-0.32 -0.84,-0.5 -1.15,-0.887 -2.7,-3.402 -5.89,-11.551 -0.64,-20.543 7.43,-12.98 20.76,-20.429 36.56,-20.429 9.68,0 19.66,2.812 28.89,8.089 1,-1.039 2.1,-2.05 3.62,-3.367 3.91,-3.402 8.28,-6.113 13.02,-8.062 0.95,-0.399 1.95,-0.59 2.94,-0.59 3.02,0 5.9,1.801 7.14,4.789 1.62,3.93 -0.26,8.441 -4.2,10.07 -3.18,1.313 -6.12,3.141 -8.76,5.442 -0.58,0.5 -0.98,0.851 -1.37,1.199 15.59,15.121 20.28,36.25 10.2,53.73"
         style="fill:#ffffff;fill-opacity:1;fill-rule:nonzero;stroke:none"
         id="path50" /><path
         d="m 2473.73,791.18 c -4.5,-7.52 -15.86,-17.25 -30.19,-20.828 -6.49,-1.653 -13.07,-2.122 -19.27,-1.512 -3.02,4.519 -6.17,10.851 -8.19,18.84 -1.94,7.8 -2.18,14.742 -1.7,20.109 5.2,3.512 11.2,6.383 17.86,8.063 19.85,4.929 40.19,-3.43 41.72,-9.372 0.35,-1.621 1.05,-2.859 1.93,-3.82 -0.32,-1.25 -0.38,-2.672 0.03,-4.23 0.3,-1.219 -0.11,-3.758 -2.19,-7.25 z m -87.59,-10.938 c -2.45,9.66 -1.85,19.188 1.66,26.828 2.07,4.489 6.01,10.121 13.32,13.129 -3.08,-9.648 -3.2,-23.457 -0.02,-36.269 3.02,-11.989 9.49,-24.571 17.11,-31.938 -14.55,-1.601 -27.57,10.149 -32.07,28.25 z m 101.45,33.488 c -7.39,14.75 -34.85,23.11 -59.1,17.102 -2.53,-0.633 -5,-1.41 -7.42,-2.281 -0.21,0.488 -0.26,1.039 -0.57,1.488 -2.82,3.992 -10.6,8.551 -19.55,6.313 -12.16,-3.071 -21.81,-11.172 -27.18,-22.821 -3.04,-6.601 -4.38,-14.109 -4.36,-21.883 -0.52,0.043 -1.05,0.082 -1.8,0.153 -3.58,0.301 -6.82,1.129 -9.93,2.531 -3.87,1.738 -8.45,0.008 -10.21,-3.902 -1.74,-3.891 0,-8.461 3.9,-10.2 4.64,-2.082 9.66,-3.359 14.9,-3.82 2,-0.18 3.49,-0.301 4.89,-0.301 0.04,0 0.08,0.012 0.12,0.012 6.05,-23.762 23.81,-39.711 44.3,-39.711 3.33,0 6.7,0.422 9.99,1.262 10.15,2.527 13.81,10.469 14.36,14.75 0.07,0.519 -0.14,1.008 -0.17,1.527 2.53,0.371 5.05,0.801 7.56,1.43 16.41,4.101 31.98,15.043 39.66,27.883 3.1,5.168 4.6,10.269 4.46,14.968 1.67,1.75 3.84,4.782 2.81,8.7 -0.9,4.101 -4.05,5.871 -6.66,6.8"
         style="fill:#ffffff;fill-opacity:1;fill-rule:nonzero;stroke:none"
         id="path52" /><path
         d="m 1937.31,488.898 c 8.46,-5.128 21.42,-8.347 35.22,-8.347 0.01,0 0.02,0 0.03,0 13.4,0.219 26.52,3.801 35.02,9.269 -1.96,-14.281 -15.94,-24.441 -34.8,-24.672 l -0.74,-0.007 c -16.02,0 -32.31,8.129 -34.73,23.757 z m 23.67,63.774 c 2.83,2.898 5.18,3.937 6.35,3.949 1.63,0 2.98,0.41 4.12,1.051 1.03,-0.543 2.25,-0.891 3.67,-0.891 0.11,0 0.2,0.008 0.36,0 6.4,0 19.65,-17.5 19.96,-37.929 0.09,-6.84 -1.14,-13.372 -3.21,-19.313 -5.18,-1.848 -12.17,-3.418 -20.6,-3.547 -7.8,0 -14.41,1.36 -19.37,3.039 -2.22,5.86 -3.63,12.34 -3.72,19.149 -0.21,14.718 6.3,28.199 12.44,34.492 z m 27.74,-102.461 c -0.26,0.719 -0.43,1.219 -0.6,1.711 20.97,5.57 35.39,21.707 35.14,41.898 -0.12,10.461 -7.01,15.789 -11.07,17.289 -0.52,0.2 -1.07,0.102 -1.6,0.18 0.22,2.57 0.34,5.172 0.3,7.781 -0.39,24.871 -15.38,49.172 -31.62,52.711 -1.32,1.969 -3.76,4.75 -7.84,4.75 -4.14,-0.152 -6.65,-2.601 -8.14,-4.941 -4.58,-1.039 -9.14,-3.82 -13.36,-8.141 -10.47,-10.719 -17.07,-28.578 -16.83,-45.48 0.03,-2.598 0.21,-5.168 0.5,-7.719 -0.47,-0.078 -0.95,-0.008 -1.4,-0.191 -4.03,-1.629 -10.77,-7.188 -10.63,-17.61 0.27,-24.367 21.96,-42.75 50.47,-42.75 0.03,0 0.37,0 0.65,0 0.35,-1.367 0.81,-2.789 1.5,-4.707 1.81,-5 4.32,-9.512 7.46,-13.433 1.52,-1.887 3.76,-2.879 6.02,-2.879 1.7,0 3.4,0.562 4.84,1.711 3.32,2.679 3.85,7.531 1.17,10.859 -2.07,2.582 -3.75,5.609 -4.96,8.961"
         style="fill:#ffffff;fill-opacity:1;fill-rule:nonzero;stroke:none"
         id="path54" /><path
         d="m 2124.92,348.379 c -0.88,-0.93 -1.62,-2.129 -2.02,-3.68 -0.33,-1.219 -1.94,-3.238 -5.47,-5.269 -7.62,-4.348 -22.27,-7.282 -36.51,-3.399 -6.54,1.758 -12.44,4.731 -17.59,8.36 -0.39,5.379 -0.03,12.359 2.08,20.168 2.17,7.871 5.41,14.113 8.44,18.57 6.27,0.48 12.9,-0.09 19.44,-1.867 19.77,-5.403 33.41,-22.633 31.8,-28.621 -0.47,-1.571 -0.46,-2.993 -0.17,-4.262 z m -75.1,-15.969 c -4.89,2.121 -8.86,5.699 -11.61,10.488 -4.6,8.032 -5.52,18.911 -2.54,29.852 4.5,16.559 16.41,27.68 29.65,27.68 0.98,0 1.97,-0.071 2.97,-0.188 -7.77,-7.242 -14.51,-19.73 -17.77,-31.633 -3.44,-12.718 -3.6,-26.507 -0.7,-36.199 z m 47.53,63.75 c -2.51,0.692 -5.04,1.219 -7.56,1.629 0.05,0.543 0.28,1.051 0.22,1.602 -0.44,4.308 -3.89,12.32 -13.95,15.019 -3.55,0.969 -7.16,1.461 -10.74,1.461 -15.85,0 -30.14,-9.652 -38.72,-24.949 -0.42,0.277 -0.83,0.558 -1.43,0.957 -2.89,1.961 -5.41,4.34 -7.48,7.101 -2.57,3.372 -7.42,4.079 -10.82,1.5 -3.4,-2.582 -4.08,-7.41 -1.51,-10.82 3.1,-4.09 6.85,-7.648 11.16,-10.578 1.7,-1.133 2.94,-1.934 4.19,-2.613 -3.94,-14.758 -2.47,-29.77 4.1,-41.239 5.46,-9.539 13.92,-16.089 24.48,-18.941 1.87,-0.508 3.75,-0.758 5.57,-0.758 6.79,0 11.86,3.59 14.14,6.68 0.3,0.391 0.34,0.891 0.55,1.32 2.38,-0.922 4.83,-1.73 7.33,-2.41 5.83,-1.59 12,-2.371 18.12,-2.371 10.98,0.012 21.77,2.512 30.11,7.289 5.22,2.992 9.04,6.703 11.22,10.883 2.3,0.707 5.66,2.308 6.77,6.359 1.11,3.969 -0.76,7 -2.55,9.039 0.8,16.5 -19.07,37.239 -43.2,43.84"
         style="fill:#ffffff;fill-opacity:1;fill-rule:nonzero;stroke:none"
         id="path56" /><path
         d="m 1953.55,348.359 c -6.39,-11.918 -19.62,-18.757 -36.31,-18.757 -1.48,0 -2.99,0.046 -4.62,0.168 -2.67,0.16 -5.24,0.25 -7.71,0.25 -8.98,0 -36.35,0 -46.85,-28.071 -6.94,-18.668 12.64,-28.051 26.94,-34.898 8.28,-3.969 20.8,-9.981 22.15,-15.121 0.66,-2.5 -1.73,-6.418 -2.9,-8.121 -10.1,-13.161 -22.38,-20.118 -35.53,-20.118 -11.29,0 -23.15,5.188 -33.44,14.61 -1.85,1.699 -3.73,3.48 -5.62,5.269 -12.8,12.09 -26.05,24.59 -41.74,24.59 -6.17,0 -11.93,-1.98 -17.2,-5.93 -14.89,-11.359 -7.82,-28.609 -3.59,-38.91 2.35,-5.718 5.27,-12.851 3.92,-15.828 -0.85,-1.883 -4.34,-4.023 -9.32,-5.722 -4.5,-1.528 -8.84,-2.321 -12.88,-2.321 -14.81,0 -24.38,10.442 -30.72,17.34 l -1.39,1.52 c -2.31,2.441 -4.41,4.82 -6.39,7.062 -9.22,10.43 -17.93,20.289 -32.77,20.289 -2.44,0 -5,-0.301 -7.45,-0.851 -13.24,-2.817 -15.2,-15.84 -16.37,-23.629 -0.42,-2.778 -1.2,-7.961 -2.19,-8.981 0,-0.008 -1.48,-0.469 -3.98,-0.179 -8.1,0.839 -19.64,8.332 -30.3,37.691 5.86,0.879 11.95,1.809 18.48,2.859 98.88,17.442 238.86,84.129 241.33,91.371 0.19,0.539 0.24,1.118 0.18,1.688 -0.04,0.41 -0.15,0.801 -0.32,1.16 -0.16,0.371 -0.39,0.723 -0.67,1.02 -0.71,0.781 -1.74,1.273 -2.88,1.273 -1.08,0 -1.08,0 -12.2,-4.391 -35.57,-14.05 -143.81,-56.832 -229.31,-71.82 -6.51,-1.031 -12.45,-2.012 -18.07,-2.949 -0.13,33.738 7.66,44.18 12.57,47.34 0.65,0.418 1.14,0.648 1.31,0.797 1.43,-1.219 3.73,-4.86 5.14,-7.11 4.67,-7.39 11.07,-18.25 24.55,-15.328 20.8,4.668 23.33,22.789 25.77,40.301 l 1.25,8.527 c 2.28,15.442 5.54,29.653 20.28,33.852 6.87,1.941 8.85,1.871 14.09,-15.602 3.55,-11.879 8.43,-28.148 25.35,-29.449 7.75,-0.648 14.15,1.719 19.1,6.699 10.62,10.66 10.54,30.52 10.46,48.051 v 6.02 c 0.17,40.742 20.86,40.742 28.64,40.742 2.35,0 4.81,-0.18 8.02,-0.614 4.83,-0.406 6.08,-1.937 6.49,-2.449 3.8,-4.699 2.1,-18.5 0.86,-28.558 -1.98,-16.012 -4.22,-34.161 11.11,-40.45 4.73,-1.972 9.46,-2.949 14.03,-2.949 19.47,0 31.11,17.199 38.13,30.078 8.03,14.461 19.59,22.43 32.54,22.43 13.08,0 26.09,-8.258 35.67,-22.648 9.18,-13.821 10.81,-29.231 4.36,-41.243 z m -40.03,87.051 c -21.43,0 -40.67,-12.519 -52.84,-34.418 -6.64,-12.183 -12.47,-18.094 -17.83,-18.094 -1.01,0 -2.13,0.184 -3.34,0.543 -0.45,3.61 0.52,11.438 1.18,16.848 1.96,15.781 4.16,33.66 -5.86,46 -5.22,6.441 -12.8,10.121 -21.91,10.883 -39.03,5.32 -62.2,-18.332 -62.38,-63.031 v -6.243 c 0.04,-8.519 0.11,-28.488 -4.26,-31.699 -1.77,1.352 -3.98,8.731 -5.3,13.141 -3.69,12.289 -9.85,32.871 -31.71,32.871 -3.39,0 -7.04,-0.539 -10.89,-1.621 -30.38,-8.66 -34.77,-38.442 -36.88,-52.758 l -1.27,-8.711 c -1.91,-13.699 -2.98,-18.07 -5.18,-19.801 -0.86,1.231 -1.85,2.782 -2.6,3.981 -4.52,7.179 -11.36,18.031 -24.32,18.031 -4.66,0 -9.43,-1.512 -14.2,-4.551 -22.72,-14.601 -23.75,-52.172 -23.27,-70.91 -51.15,-9.43 -50.93,-13.391 -50.65,-16.941 0.03,-0.321 0.09,-0.621 0.17,-0.899 -0.04,-0.551 0.03,-1.109 0.2,-1.66 1.17,-3.711 5.97,-4.031 11.21,-4.031 8.33,0 22.54,1.351 42.44,4.031 12.09,-35.691 29.25,-55.101 51.14,-57.379 1.51,-0.172 2.94,-0.242 4.27,-0.242 22.85,0 25.92,20.309 27.22,28.992 0.22,1.418 0.51,3.317 0.81,4.75 0.04,0 0.08,0 0.11,0 4.21,0 8.18,-4.281 15.42,-12.472 2.14,-2.411 4.4,-4.969 6.83,-7.551 l 1.24,-1.348 c 7.4,-8.051 22.8,-24.832 47.78,-24.832 6.59,0 13.44,1.203 20.35,3.551 11.74,4.012 19.24,9.922 22.95,18.082 5.49,12.078 0.46,24.348 -3.59,34.187 -1.54,3.762 -4.12,10.051 -3.86,11.653 1.45,1.09 2.45,1.238 3.22,1.238 6.48,0 17.67,-10.57 25.83,-18.27 1.99,-1.89 3.96,-3.738 5.89,-5.511 14.55,-13.348 31.98,-20.688 49.08,-20.688 14.39,0 35.41,5.059 54.21,29.598 6.71,9.59 8.94,18.902 6.63,27.691 -4.08,15.512 -20.26,23.262 -34.55,30.121 -4.75,2.27 -11.56,5.539 -14.44,7.86 3.15,6.879 8.86,11.058 24.34,11.058 2,0 4.09,-0.078 6.17,-0.211 28.3,-1.976 51.65,9.813 62.89,30.762 10.54,19.66 8.49,43.961 -5.49,65.02 -13.97,20.961 -34,32.98 -54.96,32.98"
         style="fill:#ffffff;fill-opacity:1;fill-rule:nonzero;stroke:none"
         id="path58" /><path
         d="m 2333.71,606.891 c -4.57,-31.309 -24.62,-45.871 -55.34,-37.879 -2.78,0.668 -5.66,1.418 -8.59,2.179 -10.1,2.649 -20.54,5.368 -30.22,5.368 -19.16,0 -26.31,-11.36 -28.83,-18.039 -6.62,-17.059 7.03,-27.899 16.07,-35.071 4.73,-3.769 10.64,-8.457 11,-11.847 0.23,-2.192 -1.56,-5.77 -4.5,-9.36 -7,-7.633 -14.98,-11.344 -24.39,-11.344 -7.76,0 -15.07,2.442 -20.41,4.223 l -2.28,0.75 c -2.8,0.93 -5.44,1.871 -7.92,2.738 -8.55,3.051 -15.95,5.68 -23.61,5.68 -8.02,0 -15.19,-3.008 -21.14,-8.769 -9.73,-9 -4.98,-21.211 -2.13,-28.508 1.01,-2.602 2.91,-7.473 2.68,-8.762 -0.15,-0.211 -1.02,-0.969 -2.83,-1.738 -10.6,-4.071 -25.29,1.84 -43.23,16.968 10.61,8.7 23.27,19.762 38.07,33.329 74.27,66.152 159.46,196.183 158.08,203.722 -0.23,1.328 -1.19,2.489 -2.45,2.981 -0.44,0.16 -0.91,0.25 -1.39,0.25 -2.05,0 -2.05,0 -8.94,-9.16 -61.83,-82.153 -115.44,-143.563 -159.4,-182.602 -15.69,-14.379 -27.6,-25.398 -36.8,-34.059 -18.18,31.2 -15.12,43.528 -12.69,47.688 0.36,0.641 0.66,1.062 0.74,1.281 1.74,-0.359 5.23,-2.211 7.4,-3.359 4.81,-2.551 10.26,-5.442 16.33,-5.442 4.55,0 8.7,1.61 12.22,4.852 14.5,14.031 8.42,30.148 2.53,45.73 l -3.25,8.688 c -5.27,13.922 -9.1,27.293 2.29,38.461 2.35,2.609 4.1,3.539 4.88,3.539 2.96,0 9.1,-5.949 13.16,-9.887 7.27,-7.051 15.52,-15.051 26.35,-15.051 3.43,0 6.77,0.829 10.02,2.5 6.15,3.239 10.39,8.289 12.25,14.59 4.37,14.699 -5.3,32.008 -13.83,47.278 l -2.01,3.601 c -7.86,15.012 -10.24,27.699 -6.88,36.672 2.48,6.637 8.26,11.66 17.88,15.418 2,0.832 3.81,1.27 5.22,1.27 6.45,0 11.63,-13.2 15.79,-23.809 5.47,-13.922 11.67,-29.699 26.95,-29.699 l 2.23,0.117 c 21.49,2.84 32.63,18.711 33.11,47.953 -0.62,12.457 2.52,22.668 9.05,29.527 10.52,11.039 29.87,12.051 48.6,2.422 14.26,-7.351 22.47,-19.301 22.5,-32.801 0.05,-14.25 -9.34,-27.699 -24.49,-35.648 -18.78,-8.402 -39.75,-21.602 -35.27,-48.953 1.51,-11.93 11.12,-17.981 28.55,-17.981 3.55,0 7.41,0.184 11.37,0.391 3.79,0.18 7.68,0.391 11.47,0.391 10.9,0 14.18,-1.879 15.16,-2.989 1.05,-1.199 1.36,-4.101 0.87,-7.8 z m -16.03,33.949 c -4.17,0 -8.46,-0.211 -12.63,-0.418 -6.83,-0.363 -13.71,-0.391 -16.12,-0.012 -0.58,6.711 2.1,13.332 22.73,22.582 23.59,12.34 37.64,33.5 37.56,56.567 -0.07,22.113 -13.18,42.043 -35.06,53.3 -27.82,14.34 -58.51,11.332 -75.99,-7.027 -11,-11.551 -16.33,-27.684 -15.43,-45.871 -0.35,-20.481 -6.66,-23.512 -10.79,-24.32 -2.06,2.781 -4.85,9.89 -6.77,14.789 -6.38,16.25 -15.12,38.511 -37.36,38.511 -4.49,0 -9.24,-1.019 -13.87,-2.949 -15.68,-6.14 -26.08,-15.82 -30.93,-28.801 -5.8,-15.531 -3.1,-34.211 8.17,-55.742 l 2.2,-3.937 c 3.42,-6.121 13.62,-24.391 11.25,-29.641 -2.42,1.199 -6.91,5.551 -9.7,8.25 -7.54,7.32 -16.93,16.418 -29.28,16.418 -7.96,0 -15.4,-3.769 -21.58,-10.66 -22.62,-22.117 -11.85,-50.547 -7.25,-62.699 l 3.24,-8.68 c 4.28,-11.309 5.46,-15.691 4.81,-18.219 -1.12,0.539 -2.38,1.211 -3.37,1.731 -5.13,2.73 -11.53,6.117 -18.75,6.117 -5.99,0 -14.41,-2.309 -20.36,-13.027 -14.8,-25.25 7.43,-62.301 15.64,-75.622 -13.19,-13.07 -12.84,-14.531 -12.15,-16.671 0.18,-0.559 0.56,-1.34 1.37,-1.977 0.28,-0.523 0.64,-1 1.02,-1.32 0.69,-0.551 2.58,-1.141 3.47,-1.141 3.3,0 9.2,2.981 17.49,8.719 11.17,-10.031 32.6,-26.961 55.22,-26.961 5.32,0 10.41,0.941 15.44,2.891 24.82,10.339 16.31,32.179 13.11,40.402 -0.56,1.41 -1.29,3.289 -1.74,4.738 1.36,0.879 2.4,0.961 3.42,0.961 3.67,0 9.31,-2 15.85,-4.32 2.63,-0.942 5.43,-1.942 8.5,-2.949 l 2.12,-0.704 c 6.47,-2.156 16.23,-5.406 27.75,-5.406 16.04,0 29.99,6.328 41.86,19.297 7.71,9.352 11,18.191 10.07,27 -1.39,13.051 -11.5,21.09 -19.64,27.551 -3.15,2.5 -8.42,6.68 -8.83,8.652 0.56,1.477 1.19,3.156 7.19,3.156 6.7,0 15.67,-2.339 24.36,-4.609 3.1,-0.82 6.17,-1.617 8.86,-2.258 7.09,-1.84 14.1,-2.781 20.82,-2.781 33.51,0 57.66,22.91 63.06,59.961 1.44,10.937 -0.72,19.781 -6.42,26.258 -8.45,9.633 -21.84,10.871 -32.56,10.871"
         style="fill:#ffffff;fill-opacity:1;fill-rule:nonzero;stroke:none"
         id="path60" /><path
         d="m 2532.09,1093.1 c -5.4,-10.56 -16.11,-18.58 -30.22,-22.6 -2.4,-0.68 -4.87,-1.36 -7.37,-2.03 -20.39,-5.52 -48.32,-13.09 -45.96,-39.88 1.91,-18.41 20.04,-21.33 30.88,-23.08 5.64,-0.91 13.34,-2.16 15.1,-4.74 0.41,-0.6 1.64,-3.168 0.02,-10.52 -4.7,-21.02 -19.66,-25.641 -34.58,-28.57 l -1.95,-0.379 c -3.23,-0.672 -6.3,-1.199 -9.2,-1.711 -15.21,-2.641 -30.93,-5.36 -37.08,-23.828 -4.44,-12.621 5.51,-20.981 11.44,-25.981 2.08,-1.75 5.97,-5.019 6.35,-6.312 0,-0.008 -0.12,-1.059 -1.81,-3.289 -4.33,-5.668 -12.64,-8.539 -24.7,-8.539 -8.11,0 -16.2,1.339 -22.37,2.64 4.78,11.789 10.59,26.957 17.85,46.899 34.4,98.98 42.36,249.65 38.69,254.82 l -3.2,1.65 c -3.75,0 -3.75,0 -7.19,-24.1 -6.41,-44.84 -21.42,-149.83 -47.94,-225.82 -7.05,-19.398 -12.26,-34.371 -16.16,-46.191 -28.4,17.199 -33.16,29.012 -33.3,34.691 -0.01,0.59 0.01,1.032 0.05,1.34 1.84,0.489 5.77,0.551 8.24,0.578 7.9,0.102 21.13,0.282 25.59,12.903 6.62,19.828 -7.1,31.199 -20.36,42.179 l -6.59,5.508 c -11.72,9.752 -21.91,19.692 -17.93,34.072 1.73,6.23 3.58,6.23 6.14,6.23 3.73,0 8.8,-1.34 13.7,-2.64 5.96,-1.58 12.11,-3.21 18.16,-3.21 10.64,0 16.6,5.16 19.61,9.35 4.26,5.72 5.84,12.19 4.56,18.7 -2.93,14.98 -20.1,25.35 -35.25,34.51 l -4.82,2.93 c -14.23,8.85 -22.48,18.34 -23.89,27.43 -1.08,7 1.9,14.66 9.37,23.44 3.06,4.14 5.07,4.14 5.92,4.14 5.92,0 15.86,-8.01 23.12,-13.86 10.01,-8.06 18.66,-15.03 28.53,-15.03 4.04,0 7.87,1.25 10.77,3.37 27.24,18.57 10.16,48.29 4.48,58.18 -7.71,13.03 -8.8,25.97 -3.08,36.44 6.46,11.8 20.86,19.23 38.53,19.87 l 1.98,0.03 c 15.8,0 28.33,-6.59 34.38,-18.06 6.52,-12.4 4.4,-28.06 -5.76,-42.86 -5.89,-8.38 -23.82,-33.88 -4.9,-60.02 3.79,-4.82 9.26,-7.47 15.41,-7.47 9.2,0 18.34,5.84 28.02,12.01 7.61,4.86 17.07,10.91 22.73,10.91 1.08,0 3.6,0 6.37,-6.39 5.13,-14.16 5,-27.21 -0.38,-37.71 z M 2360.15,860.32 c 0.17,0.219 0.36,0.461 0.56,0.739 0.13,-0.2 0.38,-0.309 0.45,-0.528 z m 165.95,300.04 c -12.43,0 -24.53,-7.72 -35.2,-14.54 -4.31,-2.75 -10.46,-6.68 -13.92,-7.97 -3.47,5.81 -4.87,13.98 6.89,30.71 15.03,21.9 17.73,46.9 7.22,66.86 -10.04,19.05 -30.54,30.43 -54.87,30.43 l -2.8,-0.05 c -25.92,-0.93 -47.62,-12.85 -58.03,-31.89 -9.66,-17.67 -8.4,-39.3 3.39,-59.23 10.45,-18.19 7.79,-23.25 3.93,-26.32 -3.19,1.47 -9.1,6.23 -13.17,9.51 -11.04,8.9 -23.55,18.99 -37.65,18.99 -6.62,0 -16.26,-2.35 -24.03,-12.88 -11.55,-13.51 -16.31,-27.44 -14.15,-41.4 2.5,-16.2 14.12,-30.86 34.57,-43.59 l 5.05,-3.07 c 7.08,-4.28 23.68,-14.31 24.37,-19.43 0,0 -0.37,-0.13 -1.31,-0.13 -3.04,0 -7.71,1.24 -12.23,2.43 -6.03,1.6 -12.88,3.41 -19.63,3.41 -14.2,0 -24.31,-8.23 -28.47,-23.2 -8.3,-30.01 14.5,-48.961 25.45,-58.07 l 6.62,-5.532 c 9.93,-8.226 13.09,-11.386 13.58,-13.968 -1.4,-0.078 -3.06,-0.098 -4.34,-0.121 -7.49,-0.098 -17.75,-0.239 -24.86,-7.579 -4.32,-4.46 -6.43,-10.511 -6.28,-18.019 0.67,-27.621 34.24,-48.34 49.4,-56.93 -4.96,-17.82 -3.6,-19.929 -2.59,-21.371 l 3.59,-1.89 0.44,0.152 1.07,-0.793 c 2.1,0 4.89,0.152 13.18,17.762 7.31,-1.743 19.19,-4.161 31.69,-4.161 19.67,0 34.18,5.93 43.11,17.649 16.07,21.101 -1.44,35.82 -8.03,41.371 -1.05,0.879 -2.43,2.031 -3.44,3 1.87,3 5.77,4.129 18.12,6.27 3.12,0.55 6.44,1.121 9.9,1.832 l 1.75,0.359 c 13.27,2.59 44.34,8.699 52.73,46.269 2.64,11.899 1.5,21.25 -3.47,28.56 -7.36,10.84 -20.23,12.92 -30.57,14.59 -3.88,0.62 -10.38,1.67 -11.52,2.43 -0.58,6.75 12.2,10.75 28.97,15.29 2.62,0.72 5.22,1.42 7.69,2.13 20.31,5.79 36.11,17.98 44.46,34.32 8.38,16.38 8.91,35.79 1.28,56.8 -7.49,17.36 -19.29,21.01 -27.89,21.01"
         style="fill:#ffffff;fill-opacity:1;fill-rule:nonzero;stroke:none"
         id="path62" /><path
         d="m 2389.72,1641.02 c 2.55,-1.16 5.19,-1.74 7.87,-1.74 13.49,0 20.86,13.52 27.99,26.59 4.35,8.01 11.66,21.41 16.58,21.41 0.74,0 2.91,-0.34 6.77,-3.46 11.88,-9.67 18.44,-20.91 18.97,-32.51 0.54,-11.69 -5.08,-23.93 -15.98,-34.59 -2,-2.04 -4.15,-4.11 -6.31,-6.21 -14.56,-14.09 -36.55,-35.39 -19.48,-56.65 4.58,-6.13 11.13,-9.37 18.92,-9.37 6.73,0 13.23,2.37 19.52,4.66 4.85,1.76 9.85,3.59 13.3,3.59 1.39,0 4.27,0 7.09,-9.52 6.01,-20.8 -4.94,-32.15 -16.67,-42 l -1.38,-1.17 c -2.37,-2 -4.65,-3.83 -6.8,-5.56 -12.27,-9.85 -24.95,-20.03 -21.18,-39.51 2.42,-13.07 15.16,-15.51 22.77,-16.96 2.73,-0.52 7.81,-1.5 8.79,-2.5 0.01,-0.01 0.44,-0.96 0.06,-3.84 -0.77,-6.25 -7,-17.71 -38.09,-27.66 -1.65,12.9 -4.33,29.83 -8.57,52.44 -16.75,95.83 -84.07,241.25 -93.4,241.25 -1.03,0 -2.04,-0.42 -2.78,-1.15 -2.16,-2.17 -2.16,-2.17 7.21,-25.98 16.49,-41.87 55.09,-139.94 68.67,-218.15 4.12,-21.93 7.33,-38.49 9.91,-51.2 -33.11,1.13 -43.33,9.39 -46.4,14.36 -0.28,0.48 -0.48,0.87 -0.61,1.15 1.38,1.3 4.66,3.2 6.73,4.39 6.87,3.97 18.35,10.6 15.89,23.71 -3.85,20.24 -20.94,23.53 -37.46,26.7 l -9.26,1.8 c -14.91,2.79 -28.57,6.49 -31.98,21.09 -1.57,6.59 -1.99,8.36 15.8,12.91 11.23,2.88 28.2,7.23 29.69,24.63 0.32,6.84 -1.84,13.01 -6.25,17.82 -10.39,11.32 -30.37,12.08 -48,12.74 l -4.2,0.17 c -16.4,0.98 -28.16,5.38 -34.03,12.72 -4.48,5.6 -5.91,13.63 -4.24,23.91 0.92,5.76 2.36,8.47 11.61,8.47 5.56,0 12.19,-1.16 18.6,-2.3 6.7,-1.18 13.02,-2.3 18.85,-2.3 13.04,0 18.82,6.16 21.61,11.84 5.11,11.77 8.8,34.28 -23.95,52.82 -13.31,7.55 -20.74,18.25 -20.93,30.12 -0.2,13.29 8.69,26.73 23.78,35.93 16.9,10.29 35.88,8.83 47.02,-3.26 7.66,-8.31 11.23,-20.66 10.07,-34.8 -1.25,-15.38 -3.57,-44 23.88,-54.83 z m -16.91,105.32 c -18.45,20.04 -49.81,23.35 -76.11,7.36 -22.19,-13.54 -35.23,-34.5 -34.89,-56.08 0.32,-20.11 12.21,-38.3 32.66,-49.91 17.08,-9.67 16.54,-17.05 15.03,-21.3 -0.34,-0.02 -0.75,-0.04 -1.26,-0.04 -3.8,0 -9.15,0.95 -14.82,1.95 -7.05,1.24 -15.04,2.65 -22.63,2.65 -26.13,0 -32.82,-17.55 -34.48,-27.96 -2.77,-16.97 0.27,-31.12 9.02,-42.06 10.22,-12.78 27.29,-19.97 50.93,-21.39 l 4.52,-0.17 c 9.77,-0.38 27.94,-1.06 31.81,-5.26 0.04,-0.05 0.1,-0.11 0.12,-0.26 -2.05,-1.47 -8.35,-3.09 -12.24,-4.08 -12.94,-3.31 -39.85,-10.2 -32.61,-40.67 7.11,-30.48 37.36,-36.14 50.28,-38.55 l 9.14,-1.78 c 11.92,-2.29 16.17,-3.53 17.9,-5.49 -1.14,-0.72 -2.48,-1.5 -3.54,-2.11 -6.47,-3.73 -15.33,-8.85 -17.88,-18.73 -1.56,-6.03 -0.38,-12.36 3.56,-18.92 14.9,-24.13 54.64,-25.52 71.21,-25.6 4.11,-17.19 5.73,-17.27 8.39,-17.27 0.44,0 0.86,0.06 1.26,0.19 1.07,0.06 3.26,0.89 4.06,1.86 0.97,1.17 2.97,3.72 2.41,17.85 36.3,10.69 56.23,26.87 58.88,48.16 3.44,26.13 -19.03,30.43 -27.49,32.04 -1.37,0.27 -3.2,0.61 -4.58,0.97 0.14,3.64 3.05,6.58 13.15,14.69 2.29,1.84 4.73,3.8 7.27,5.95 l 1.31,1.1 c 10.38,8.73 34.71,29.15 24.01,66.24 -6.42,21.64 -19.49,26.18 -29.33,26.18 -7.53,0 -14.8,-2.65 -21.22,-4.99 -4.21,-1.53 -8.95,-3.21 -12.21,-2.87 -3.8,4.73 5.58,14.5 17.28,25.83 2.31,2.23 4.58,4.44 6.55,6.44 15.53,15.19 23.61,33.68 22.77,52.06 -0.83,18.39 -10.35,35.47 -27.52,49.43 -7.08,5.74 -14.27,8.65 -21.36,8.65 -18.67,0 -28.8,-18.57 -36.93,-33.49 -2.45,-4.5 -5.95,-10.93 -8.38,-13.78 -6.78,3.39 -9.63,9.78 -7.92,30.79 1.7,20.65 -4.03,39.25 -16.12,52.37"
         style="fill:#ffffff;fill-opacity:1;fill-rule:nonzero;stroke:none"
         id="path64" /><path
         d="m 1958.25,2102.56 c 7.73,13.6 20.13,21.72 33.19,21.72 14.66,0 27.76,-10.1 35.13,-27.29 8.22,-17.88 19.79,-36.15 43.35,-36.15 1.48,0 3,0.08 4.47,0.23 19.52,1.77 19.35,23.45 19.22,39.29 -0.07,9.02 -0.16,22.64 3.51,26.35 0.28,0.28 1.12,1.12 4.2,1.12 1.22,0 2.55,-0.13 3.64,-0.31 15.58,-3.23 27.02,-10.34 33.12,-20.59 5.87,-9.86 6.74,-22.44 2.47,-36.61 -0.77,-2.77 -1.64,-5.64 -2.52,-8.56 -5.9,-19.42 -14.8,-48.76 10.32,-59.25 3.11,-1.38 6.32,-2.09 9.53,-2.09 11.89,0 19.88,9.28 26.32,16.74 4.01,4.64 9,10.43 12.22,10.43 0.97,0 3.81,-0.52 8.75,-5.16 15.21,-15.35 11.14,-30.72 5.67,-45.14 l -0.67,-1.8 c -1,-2.69 -2,-5.2 -2.92,-7.57 -5.7,-14.44 -11.59,-29.37 0.88,-44.99 2.5,-3.05 7.07,-6.7 14.55,-6.7 4.79,0 9.26,1.5 13.58,2.95 2.97,0.99 6.33,2.12 8.75,2.12 0.01,0 0.85,-0.64 1.9,-3.34 2.44,-6.1 2.64,-19.78 -21.01,-44.46 -7.72,10.52 -18.24,24.1 -32.63,41.78 -54.75,66.8 -149.37,133.65 -180.6,155.71 -13.57,10.82 -14.4,10.82 -15.91,10.82 l -1.65,-0.01 -2.41,-2.44 0.15,-1.79 c 0.2,-2.18 0.2,-2.18 14.22,-12.08 l 0.96,-0.67 c 36.17,-28.88 118.01,-99.98 169.43,-162.9 13.84,-16.99 24.46,-29.79 32.71,-39.49 -9.85,-5.01 -24.35,-11.3 -36.26,-11.3 -3.8,0 -6.94,0.67 -9.17,1.94 -0.51,0.3 -0.88,0.54 -1.13,0.74 0.54,1.82 2.54,5.19 3.8,7.3 4.05,6.8 10.82,18.18 2.55,28.28 -5.62,7.08 -12.94,10.67 -21.76,10.67 -7.53,0 -15.13,-2.58 -23.93,-5.56 l -9.57,-3.18 c -5.63,-1.89 -13.33,-4.47 -20.7,-4.47 -7.1,0 -12.51,2.37 -17.32,7.79 -2.08,2.16 -3.3,4.17 -3.27,5.38 0.07,3.14 6.35,9.12 10.5,13.07 8.38,8 21.08,20.07 13.92,35.84 -4.4,9.13 -12.61,14.16 -23.09,14.16 -12.45,0 -26.48,-7.13 -38.85,-13.41 l -3.74,-1.9 c -10.15,-4.83 -19.49,-7.39 -27.04,-7.39 -7.56,0 -18.3,2.11 -24.33,20.82 -1.77,4.83 -0.86,6.75 -0.56,7.38 2.52,5.3 14.89,9.57 23.92,12.68 14.04,4.85 31.52,10.88 30.61,27.57 -1.07,15.66 -10.08,34.37 -46.66,34.52 -15.66,0.48 -27.52,6.53 -33.43,17.03 -6.42,11.42 -5.11,26.79 3.59,42.17 z m -20.14,11.42 c -12.81,-22.61 -14.14,-46.28 -3.64,-64.94 9.9,-17.59 29.17,-28.1 53.21,-28.84 20.3,-0.08 23.17,-6.31 23.78,-10.98 -2.86,-1.9 -9.97,-4.36 -14.88,-6.05 -14.33,-4.95 -30.58,-10.55 -37.28,-24.63 -3.58,-7.52 -3.67,-16.03 -0.42,-24.86 11.35,-35.29 42.55,-46.22 83.44,-26.71 l 4.06,2.05 c 9.56,4.86 21.45,10.91 28.36,10.91 1.24,0 1.62,-0.09 1.9,-0.47 -1.01,-2.27 -5.79,-6.81 -8.71,-9.59 -7.74,-7.38 -17.39,-16.56 -17.68,-29.32 -0.17,-7.66 3.09,-15.05 9.41,-21.62 8.97,-10.11 20.54,-15.24 34.34,-15.24 11.15,0 21.32,3.41 28.06,5.67 l 9.64,3.2 c 7.91,2.67 14.62,5.23 17.98,4.16 -0.67,-1.23 -1.52,-2.66 -2.18,-3.76 -3.83,-6.44 -9.07,-15.26 -6.51,-25.15 1.55,-6.02 5.61,-10.98 12.21,-14.83 5.89,-3.33 12.86,-5.02 20.71,-5.02 18.22,0 37.61,8.82 51.96,16.56 10.92,-11.89 12.8,-12.05 14.44,-12.05 1.05,-0.18 2.21,0.31 3.13,1.15 l 1.15,0.17 1.04,2.2 c 0.81,1.69 2.03,4.44 -6.42,18.1 27.49,27.48 37.41,51.85 29.26,72.37 -6.13,15.66 -17.58,18 -23.86,18 -5.79,0 -11.06,-1.76 -15.7,-3.32 -1.27,-0.42 -2.94,-0.98 -4.28,-1.35 -1.72,3.48 -0.64,7.46 4.16,19.64 1,2.5 2.04,5.17 3.09,8 l 0.62,1.65 c 4.81,12.7 16.09,42.44 -11.17,69.93 -8.39,7.9 -16.54,11.75 -24.91,11.75 -13.83,0 -22.66,-10.25 -29.76,-18.48 -2.66,-3.07 -7.08,-8.2 -9.13,-8.5 -5.6,2.34 -2.11,15.54 2.66,31.26 0.94,3.1 1.86,6.15 2.6,8.84 6.14,20.31 4.48,39.3 -4.81,54.9 -9.5,15.98 -26.21,26.84 -48.68,31.49 -14.54,2.52 -24.15,-2.75 -28.62,-7.25 -10.47,-10.55 -10.34,-27.7 -10.22,-42.84 0.04,-5.13 0.09,-12.47 -0.65,-16.18 -7.29,0.04 -13.56,3.89 -22.07,22.39 -11.03,25.71 -32.08,41.05 -56.3,41.05 -21.51,0 -41.44,-12.5 -53.33,-33.46"
         style="fill:#ffffff;fill-opacity:1;fill-rule:nonzero;stroke:none"
         id="path66" /><path
         d="m 863.203,991.898 52.024,136.642 h -29.434 l -27.332,-70.95 c -3.918,-10.51 -7.879,-22.84 -11.289,-35.2 h -0.27 c -3.41,12.62 -7.093,24.69 -11.289,35.75 l -26.547,70.4 H 777.793 L 830.09,991.898 h 33.113"
         style="fill:#ffffff;fill-opacity:1;fill-rule:nonzero;stroke:none"
         id="path68" /><path
         d="m 1031.88,1014.51 h -52.052 v 36.77 h 49.672 v 21.56 h -49.672 v 33.36 h 52.052 v 22.34 H 951.453 V 991.898 h 80.427 v 22.612"
         style="fill:#ffffff;fill-opacity:1;fill-rule:nonzero;stroke:none"
         id="path70" /><path
         d="m 1133.57,991.898 v 112.462 h 37.86 v 24.18 h -104.07 v -24.18 h 37.83 V 991.898 h 28.38"
         style="fill:#ffffff;fill-opacity:1;fill-rule:nonzero;stroke:none"
         id="path72" /><path
         d="m 1292.55,1106.2 v 22.34 h -80.4 V 991.898 h 80.4 v 22.612 h -52.02 v 36.77 h 49.67 v 21.56 h -49.67 v 33.36 h 52.02"
         style="fill:#ffffff;fill-opacity:1;fill-rule:nonzero;stroke:none"
         id="path74" /><path
         d="m 1429.99,1055.74 -46.02,72.8 h -37.83 V 991.898 h 27.6 l -0.27,71.492 c 0,12.59 -0.25,21.02 -0.79,28.62 h 0.27 c 3.69,-8.12 8.66,-17.83 13.93,-25.99 l 47.03,-74.122 h 37.82 v 136.642 h -27.58 l 0.27,-60.16 c 0,-17.61 0.27,-30.74 0.78,-39.41 h -0.23 c -4.47,9.45 -9.74,18.38 -14.98,26.77"
         style="fill:#ffffff;fill-opacity:1;fill-rule:nonzero;stroke:none"
         id="path76" /><path
         d="m 1556.11,1012.94 c -11.55,0 -22.33,2.08 -30.21,5.25 l -1.06,-25.479 c 7.61,-1.84 18.67,-3.441 28.11,-3.441 34.96,0 59.11,18.15 59.11,45.98 0,42.84 -60.95,32.61 -60.95,55.97 0,10.27 7.63,17.09 24.95,17.09 7.9,0 18.68,-1.57 26.04,-3.95 l 1.05,24.18 c -7.63,1.32 -18.13,2.36 -26.01,2.36 -36,0 -55.99,-17.06 -55.99,-42.81 0,-44.42 60.17,-31.8 60.17,-55.99 0,-13.4 -12.35,-19.16 -25.21,-19.16"
         style="fill:#ffffff;fill-opacity:1;fill-rule:nonzero;stroke:none"
         id="path78" /><path
         d="M 1661.76,1128.54 V 991.898 h 28.39 v 64.132 l 50.68,-64.132 h 37.6 l -58.86,70.942 55.95,65.7 h -34.93 l -50.44,-60.95 v 60.95 h -28.39"
         style="fill:#ffffff;fill-opacity:1;fill-rule:nonzero;stroke:none"
         id="path80" /><path
         d="m 1860.77,1077.58 c 2.63,7.1 5.25,14.71 6.86,21.28 h 0.22 c 1.86,-6.3 4.48,-14.45 7.11,-21.55 l 14.19,-38.37 h -43.09 z m -21.52,-59.14 h 56.99 l 9.73,-26.542 h 31.55 l -51.51,136.642 h -33.36 l -51.78,-136.642 h 28.38 l 10,26.542"
         style="fill:#ffffff;fill-opacity:1;fill-rule:nonzero;stroke:none"
         id="path82" /><path
         d="m 2018.96,1058.92 c -3.67,0 -8.92,0.24 -12.08,1.05 v 46.23 c 3.71,0.28 8.68,0.28 13.93,0.28 17.61,0 26.54,-9.72 26.54,-23.14 0,-16.03 -10.77,-24.42 -28.39,-24.42 z m 4.2,70.41 c -16.03,0 -33.09,-0.51 -44.65,-0.79 V 991.898 h 28.37 v 44.952 c 3.42,-0.27 8.68,-0.54 12.08,-0.54 34.7,0 58.61,18.93 58.61,48.89 0,27.58 -19.71,44.13 -54.41,44.13"
         style="fill:#ffffff;fill-opacity:1;fill-rule:nonzero;stroke:none"
         id="path84" /><path
         d="m 866.227,878.219 c 23.39,0 38.613,-16.028 38.613,-46.489 0,-30.5 -17.875,-45.199 -39.672,-45.199 -26.813,0 -37.828,20.5 -37.828,46.489 0,29.449 18.109,45.199 38.887,45.199 z m -2.629,-116.668 c 39.16,0 71.734,26.82 71.734,72.019 0,46.25 -27.598,69.352 -67.266,69.352 -37.832,0 -70.949,-27.051 -70.949,-71.981 0,-40.992 22.067,-69.39 66.481,-69.39"
         style="fill:#ffffff;fill-opacity:1;fill-rule:nonzero;stroke:none"
         id="path86" /><path
         d="m 1035.44,762.121 c 13.41,0 25.49,2.078 36.81,6.027 l -2.39,25.204 c -8.15,-3.93 -18.38,-6.313 -28.62,-6.313 -27.08,0 -42.838,15.52 -42.838,44.953 0,27.059 14.458,46.508 41.238,46.508 9.49,0 19.2,-1.578 28.92,-4.75 l 2.63,24.961 c -9.2,2.629 -20.5,3.687 -29.44,3.687 -51.23,0 -73.566,-34.406 -73.566,-73.027 0,-41.539 22.609,-67.25 67.256,-67.25"
         style="fill:#ffffff;fill-opacity:1;fill-rule:nonzero;stroke:none"
         id="path88" /><path
         d="M 1238.06,763.922 V 900.57 h -28.38 v -54.39 h -64.4 v 54.39 H 1116.9 V 763.922 h 28.38 v 57.82 h 64.4 v -57.82 h 28.38"
         style="fill:#ffffff;fill-opacity:1;fill-rule:nonzero;stroke:none"
         id="path90" /><path
         d="m 1387.94,828.051 50.7,-64.129 h 37.59 l -58.88,70.937 55.98,65.711 h -34.93 l -50.46,-60.961 v 60.961 h -28.38 V 763.922 h 28.38 v 64.129"
         style="fill:#ffffff;fill-opacity:1;fill-rule:nonzero;stroke:none"
         id="path92" /><path
         d="m 1564.28,878.219 c 23.37,0 38.61,-16.028 38.61,-46.489 0,-30.5 -17.89,-45.199 -39.69,-45.199 -26.79,0 -37.81,20.5 -37.81,46.489 0,29.449 18.12,45.199 38.89,45.199 z m -2.63,-116.668 c 39.15,0 71.73,26.82 71.73,72.019 0,46.25 -27.6,69.352 -67.27,69.352 -37.86,0 -70.95,-27.051 -70.95,-71.981 0,-40.992 22.07,-69.39 66.49,-69.39"
         style="fill:#ffffff;fill-opacity:1;fill-rule:nonzero;stroke:none"
         id="path94" /><path
         d="m 1716.03,838.039 47.03,-74.117 h 37.82 V 900.57 h -27.56 l 0.25,-60.172 c 0,-17.609 0.27,-30.738 0.79,-39.406 h -0.25 c -4.46,9.449 -9.72,18.387 -14.97,26.778 l -45.99,72.8 h -37.87 V 763.922 h 27.61 l -0.26,71.488 c 0,12.59 -0.25,21.02 -0.79,28.621 h 0.27 c 3.67,-8.109 8.66,-17.851 13.92,-25.992"
         style="fill:#ffffff;fill-opacity:1;fill-rule:nonzero;stroke:none"
         id="path96" /><path
         d="m 1883.96,784.961 c -11.55,0 -22.33,2.078 -30.21,5.258 l -1.05,-25.489 c 7.6,-1.839 18.66,-3.441 28.11,-3.441 34.95,0 59.11,18.152 59.11,45.992 0,42.84 -60.95,32.59 -60.95,55.961 0,10.27 7.62,17.09 24.97,17.09 7.88,0 18.66,-1.57 26.01,-3.953 l 1.07,24.191 c -7.64,1.321 -18.15,2.352 -26.04,2.352 -35.98,0 -55.97,-17.063 -55.97,-42.813 0,-44.418 60.18,-31.8 60.18,-55.968 0,-13.422 -12.34,-19.18 -25.23,-19.18"
         style="fill:#ffffff;fill-opacity:1;fill-rule:nonzero;stroke:none"
         id="path98" /><path
         d="m 2033.67,763.922 v 112.457 h 37.83 v 24.191 h -104.03 v -24.191 h 37.82 V 763.922 h 28.38"
         style="fill:#ffffff;fill-opacity:1;fill-rule:nonzero;stroke:none"
         id="path100" /><path
         d="m 974.473,1287.74 -3.403,0.42 c -71.722,8.9 -72.148,23.1 -73.867,82.73 v 103.6 l 119.887,-130.41 c 45.7,-50.09 70.89,-77.7 137.42,-77.7 12.37,0 26.06,0.94 41.87,2.87 l 3.34,0.39 0.28,16.02 -3.77,0.15 c -39.98,1.74 -61.78,24.4 -105.21,69.45 -6,6.25 -12.36,12.86 -19.12,19.76 l -116.81,130 47.01,48.08 10.05,10.52 c 39.51,41.53 84.3,88.58 144.02,94.89 l 3.47,0.36 v 16.02 h -158.2 v -16.02 l 3.47,-0.36 c 15.66,-1.66 24.07,-5.31 26.48,-11.52 4.46,-11.55 -9.44,-35.24 -42.437,-72.3 l -91.75,-97.94 v 98.51 c 1.746,59.84 2.145,74.08 58.301,82.89 l 3.289,0.51 v 15.86 H 766.332 v -15.95 l 3.348,-0.45 c 66.535,-8.87 66.929,-23.07 68.679,-82.73 v -204.37 c -1.75,-59.79 -2.144,-74 -68.679,-82.86 l -3.348,-0.45 v -15.95 h 208.141 v 15.98"
         style="fill:#ffffff;fill-opacity:1;fill-rule:nonzero;stroke:none"
         id="path102" /><path
         d="m 1499.67,1287.76 -3.4,0.4 c -75.07,8.96 -77.91,25.99 -77.91,96.66 v 264.55 h 31.01 c 68.61,0 96.63,-21.26 115.33,-87.59 l 0.99,-3.46 14.94,3.22 -7.4,113.59 h -368.8 l -7.21,-113.59 14.93,-3.22 0.99,3.46 c 18.71,66.33 46.73,87.59 115.38,87.59 h 31 v -264.55 c 0,-70.67 -2.87,-87.7 -77.94,-96.66 l -3.38,-0.4 v -16 h 221.47 v 16"
         style="fill:#ffffff;fill-opacity:1;fill-rule:nonzero;stroke:none"
         id="path104" /><path
         d="m 2091.75,1658.12 3.34,0.45 v 15.95 h -208.15 v -15.92 l 3.29,-0.48 c 73.99,-10.74 73.99,-20.33 73.99,-82.73 v -80.38 H 1754.2 v 80.38 c 0,62.4 0,71.99 73.95,82.73 l 3.32,0.48 v 15.92 h -208.13 v -15.95 l 3.35,-0.45 c 66.53,-8.87 66.92,-23.07 68.67,-82.73 v -204.37 c -1.75,-59.79 -2.14,-74 -68.67,-82.86 l -3.35,-0.45 v -15.95 h 208.13 v 15.91 l -3.32,0.49 c -73.95,10.74 -73.95,20.33 -73.95,82.73 v 91.99 h 210.02 v -91.99 c 0,-62.4 0,-71.99 -73.99,-82.73 l -3.29,-0.49 v -15.91 h 208.15 v 15.95 l -3.34,0.45 c -66.54,8.86 -66.93,23.07 -68.67,82.73 v 204.37 c 1.74,59.79 2.13,73.99 68.67,82.86"
         style="fill:#ffffff;fill-opacity:1;fill-rule:nonzero;stroke:none"
         id="path106" /><path
         d="m 939.746,2304.08 c 16.594,0 30.102,-13.51 30.102,-30.09 0,-5.42 -1.551,-10.41 -4.067,-14.8 -1.136,0.1 -2.281,0.18 -3.441,0.18 -13.168,0 -24.902,-5.96 -32.793,-15.28 -9.328,5.77 -19.867,19 -19.867,29.9 0,16.58 13.48,30.09 30.066,30.09 z m 1.66,52.63 c 0,12.52 10.164,22.69 22.653,22.69 12.543,0 22.738,-10.17 22.738,-22.69 0,-12.51 -10.195,-22.67 -22.738,-22.67 -12.489,0 -22.653,10.16 -22.653,22.67 z m 67.014,75.05 c 8.81,0 15.96,-7.15 15.96,-15.99 0,-8.81 -7.15,-15.95 -15.96,-15.95 -8.83,0 -16.014,7.14 -16.014,15.95 0,8.84 7.184,15.99 16.014,15.99 z m 146.41,28.02 c 0.66,-1.17 1.32,-2.39 2.08,-3.51 -20.75,-1.92 -37.1,-19.24 -37.1,-40.5 0,-15.13 8.32,-28.23 20.57,-35.29 -14.75,-8.44 -24.73,-24.31 -24.73,-42.5 0,-22.55 15.38,-41.56 36.2,-47.19 -0.76,-4.8 -0.76,-9.78 0.23,-14.81 0,0 0.82,-2.26 1.54,-4.23 -2.59,-0.03 -5.31,0.48 -7.79,-0.03 -22.89,-4.49 -37.9,-26.75 -33.38,-49.65 4.46,-22.82 26.75,-37.85 49.65,-33.35 17.4,3.41 30.1,17.16 33.24,33.6 0.96,-3.17 3.04,-11.74 3.46,-13.94 4.65,-23.55 -10.79,-46.51 -34.35,-51.12 -21.99,-4.31 -43.67,2.32 -59.27,16.19 -5.76,-20.02 -20.47,-37.24 -41.38,-45.39 -20.98,-8.18 -44.49,1.09 -54.54,20.74 2.63,2.25 4.97,4.81 7.02,7.6 34.88,-12.64 52.67,13.62 55.78,20.85 12.94,30.14 -6.83,61.36 -38.74,61.64 -10.26,0.09 -19.66,-3.6 -27.05,-9.58 -0.82,-0.58 -1.63,-1.17 -2.47,-1.7 -0.27,1.02 -2.65,16.48 -22.737,27.41 1.71,5.07 3.886,10.85 4.367,19.46 1.383,24.69 -1.528,33.75 15.4,72.56 20.81,42.37 66.28,84.78 154,112.74 z m -92.24,7.56 c 7.24,0 13.12,-5.9 13.12,-13.14 0,-7.27 -5.88,-13.18 -13.12,-13.18 -7.3,0 -13.21,5.91 -13.21,13.18 0,7.24 5.91,13.14 13.21,13.14 z m 58.06,23.93 c 5.77,0 10.47,-4.71 10.47,-10.5 0,-5.79 -4.7,-10.5 -10.47,-10.5 -5.78,0 -10.49,4.71 -10.49,10.5 0,5.79 4.71,10.5 10.49,10.5 z m 40.06,-50.04 c 14.02,0 25.45,-11.43 25.45,-25.46 0,-14.06 -11.43,-25.48 -25.45,-25.48 -14.06,0 -25.46,11.42 -25.46,25.48 0,14.03 11.4,25.46 25.46,25.46 z m 25.94,56.31 c 11.4,0 20.66,-9.29 20.66,-20.72 0,-11.43 -9.26,-20.72 -20.66,-20.72 -11.46,0 -20.76,9.29 -20.76,20.72 0,11.43 9.3,20.72 20.76,20.72 z m -29.41,-192.19 c -14.93,3.38 -26.15,16.71 -26.15,32.63 0,18.5 15.05,33.52 33.54,33.52 18.49,0 33.54,-15.02 33.54,-33.52 0,-4.09 -0.85,-8.02 -2.2,-11.67 -3.41,0.19 -6.88,0 -10.38,-0.69 -12.4,-2.41 -22.44,-10.1 -28.35,-20.27 z m 70.79,-53.07 c 0,-15.34 -12.42,-27.79 -27.78,-27.79 -15.34,0 -27.78,12.45 -27.78,27.79 0,15.33 12.44,27.77 27.78,27.77 15.36,0 27.78,-12.44 27.78,-27.77 z m 164.44,284.08 c 0.82,-0.48 1.66,-1 2.5,-1.45 -25.55,-63.91 -28.23,-206.96 -28.23,-206.96 l 15.11,-9.75 c -1.11,-3.83 -1.74,-7.87 -1.74,-12.06 0,0 0.35,-2.38 0.69,-4.47 -2.54,0.46 -5.13,1.48 -7.66,1.48 -23.32,0 -42.31,-18.97 -42.31,-42.31 0,-23.29 18.99,-42.27 42.31,-42.27 17.73,0 32.84,11.05 39.12,26.58 0.3,-3.29 0.69,-12.1 0.69,-14.36 0,-24 -19.55,-43.58 -43.56,-43.58 -22.4,0 -40.99,11.01 -53.62,27.57 -9.26,-18.73 -25.34,-32.85 -47.35,-37.13 -23.6,-4.65 -46.54,10.8 -51.16,34.35 -0.42,2.24 -1.68,10.92 -2.02,14.24 9.14,-14.06 26.06,-21.99 43.47,-18.58 22.92,4.49 37.85,26.75 33.38,49.62 -4.46,22.89 -26.75,37.88 -49.61,33.38 -2.5,-0.48 -4.74,-1.87 -7.09,-2.83 -0.03,2.08 -0.15,4.4 -0.15,4.4 -2.02,10.41 -7.75,19.12 -15.47,25.18 l 6.21,10.78 c -24.64,51.06 -42.62,196.34 166.49,208.17 z m -160.85,-5.13 c 8.29,0 15.05,-6.76 15.05,-15.08 0,-8.29 -6.76,-15.02 -15.05,-15.02 -8.33,0 -15.11,6.73 -15.11,15.02 0,8.32 6.78,15.08 15.11,15.08 z m 48.86,23.92 c 6.67,0 12.1,-5.43 12.1,-12.15 0,-6.7 -5.43,-12.16 -12.1,-12.16 -6.73,0 -12.22,5.46 -12.22,12.16 0,6.72 5.49,12.15 12.22,12.15 z m 55.5,13.06 c 5.31,0 9.65,-4.34 9.65,-9.68 0,-5.37 -4.34,-9.74 -9.65,-9.74 -5.37,0 -9.74,4.37 -9.74,9.74 0,5.34 4.37,9.68 9.74,9.68 z m 43.08,23.1 h 32.27 c -7.12,-4.01 -12,-11.55 -12,-20.33 0,-1.9 0.27,-3.74 0.69,-5.48 -5.34,-0.07 -10.34,-0.15 -14.14,-0.27 -4.38,6.72 -6.97,14.71 -6.97,23.34 0,0.94 0.09,1.84 0.15,2.74 z m 33.04,39.29 v -23.02 h -28.6 c 5.57,11.09 16.24,20.04 28.6,23.02 z m 10.6,-78.46 c 8.01,0 14.55,-6.51 14.55,-14.53 0,-8.02 -6.54,-14.52 -14.55,-14.52 -8.03,0 -14.53,6.5 -14.53,14.52 0,8.02 6.5,14.53 14.53,14.53 z m -0.02,28.57 c 5.35,0 9.68,-4.33 9.68,-9.66 0,-5.34 -4.33,-9.67 -9.68,-9.67 -5.34,0 -9.66,4.33 -9.66,9.67 0,5.33 4.32,9.66 9.66,9.66 z m 10.62,49.89 c 12.43,-2.98 23.14,-11.93 28.72,-23.02 h -28.72 z m 33.16,-39.29 c 0.05,-0.9 0.15,-1.8 0.15,-2.74 0,-8.63 -2.6,-16.62 -6.98,-23.34 -3.8,0.12 -8.82,0.2 -14.19,0.27 0.42,1.74 0.7,3.58 0.7,5.48 0,8.78 -4.9,16.32 -12.06,20.33 z m 153.08,-263.12 6.21,-10.78 c -7.72,-6.06 -13.46,-14.77 -15.48,-25.18 0,0 -0.1,-2.32 -0.14,-4.4 -2.37,0.96 -4.59,2.35 -7.09,2.83 -22.86,4.5 -45.16,-10.49 -49.61,-33.38 -4.47,-22.87 10.46,-45.13 33.38,-49.62 17.41,-3.41 34.32,4.52 43.46,18.58 -0.34,-3.32 -1.6,-12 -2.03,-14.24 -4.61,-23.55 -27.55,-39 -51.15,-34.35 -22.01,4.28 -38.09,18.4 -47.35,37.13 -12.63,-16.56 -31.21,-27.57 -53.63,-27.57 -24.02,0 -43.65,19.58 -43.65,43.58 0,2.26 0.39,11.07 0.68,14.36 6.32,-15.53 21.5,-26.58 39.24,-26.58 23.31,0 42.31,18.98 42.31,42.27 0,23.34 -19,42.31 -42.31,42.31 -2.54,0 -5.13,-1.02 -7.67,-1.48 0.33,2.09 0.7,4.47 0.7,4.47 0,4.19 -0.64,8.23 -1.75,12.06 l 15.11,9.75 c 0,0 -2.69,143.05 -28.25,206.96 0.85,0.45 1.69,0.97 2.51,1.45 209.12,-11.83 191.15,-157.11 166.51,-208.17 z m -110.01,240.02 c 5.37,0 9.76,-4.34 9.76,-9.68 0,-5.37 -4.39,-9.74 -9.76,-9.74 -5.3,0 -9.66,4.37 -9.66,9.74 0,5.34 4.36,9.68 9.66,9.68 z m 55.5,-13.06 c 6.73,0 12.22,-5.43 12.22,-12.15 0,-6.7 -5.49,-12.16 -12.22,-12.16 -6.65,0 -12.09,5.46 -12.09,12.16 0,6.72 5.44,12.15 12.09,12.15 z m 48.87,-23.92 c 8.33,0 15.11,-6.76 15.11,-15.08 0,-8.29 -6.78,-15.02 -15.11,-15.02 -8.29,0 -15.06,6.73 -15.06,15.02 0,8.32 6.77,15.08 15.06,15.08 z m 31.35,-251.18 c 15.35,0 27.79,-12.44 27.79,-27.77 0,-15.34 -12.44,-27.79 -27.79,-27.79 -15.34,0 -27.77,12.45 -27.77,27.79 0,15.33 12.43,27.77 27.77,27.77 z m 13.61,217.49 c 11.46,0 20.76,-9.29 20.76,-20.72 0,-11.43 -9.3,-20.72 -20.76,-20.72 -11.41,0 -20.66,9.29 -20.66,20.72 0,11.43 9.25,20.72 20.66,20.72 z m 51.39,-81.77 c 0,-14.06 -11.39,-25.48 -25.45,-25.48 -14.02,0 -25.45,11.42 -25.45,25.48 0,14.03 11.43,25.46 25.45,25.46 14.06,0 25.45,-11.43 25.45,-25.46 z m -50.33,-90.15 c -3.5,0.69 -6.97,0.88 -10.39,0.69 -1.35,3.65 -2.19,7.58 -2.19,11.67 0,18.5 15.04,33.52 33.54,33.52 18.5,0 33.53,-15.02 33.53,-33.52 0,-15.92 -11.21,-29.25 -26.14,-32.63 -5.91,10.17 -15.95,17.86 -28.35,20.27 z m 30.76,134.16 c 87.72,-27.96 133.2,-70.37 154.02,-112.74 16.91,-38.81 14,-47.87 15.39,-72.56 0.47,-8.61 2.64,-14.39 4.35,-19.46 -20.07,-10.93 -22.46,-26.39 -22.74,-27.41 -0.84,0.53 -1.64,1.12 -2.46,1.7 -7.38,5.98 -16.79,9.67 -27.03,9.58 -31.93,-0.28 -51.69,-31.5 -38.76,-61.64 3.11,-7.23 20.91,-33.49 55.79,-20.85 2.04,-2.79 4.37,-5.35 7.01,-7.6 -10.04,-19.65 -33.55,-28.92 -54.54,-20.74 -20.91,8.15 -35.62,25.37 -41.38,45.39 -15.59,-13.87 -37.28,-20.5 -59.27,-16.19 -23.55,4.61 -38.99,27.57 -34.35,51.12 0.42,2.2 2.51,10.77 3.46,13.94 3.15,-16.44 15.84,-30.19 33.24,-33.6 22.9,-4.5 45.18,10.53 49.65,33.35 4.52,22.9 -10.49,45.16 -33.39,49.65 -2.47,0.51 -5.18,0 -7.79,0.03 0.74,1.97 1.55,4.23 1.55,4.23 0.99,5.03 0.99,10.01 0.23,14.81 20.82,5.63 36.2,24.64 36.2,47.19 0,18.19 -9.99,34.06 -24.73,42.5 12.25,7.06 20.57,20.16 20.57,35.29 0,21.26 -16.34,38.58 -37.1,40.5 0.76,1.12 1.43,2.34 2.08,3.51 z m 34.17,31.49 c 5.8,0 10.5,-4.71 10.5,-10.5 0,-5.79 -4.7,-10.5 -10.5,-10.5 -5.75,0 -10.46,4.71 -10.46,10.5 0,5.79 4.71,10.5 10.46,10.5 z m 58.07,-23.93 c 7.29,0 13.21,-5.9 13.21,-13.14 0,-7.27 -5.92,-13.18 -13.21,-13.18 -7.24,0 -13.12,5.91 -13.12,13.18 0,7.24 5.88,13.14 13.12,13.14 z m 54.16,-35.58 c 8.84,0 16.02,-7.15 16.02,-15.99 0,-8.81 -7.18,-15.95 -16.02,-15.95 -8.8,0 -15.95,7.14 -15.95,15.95 0,8.84 7.15,15.99 15.95,15.99 z m 44.38,-52.36 c 12.5,0 22.64,-10.17 22.64,-22.69 0,-12.51 -10.14,-22.67 -22.64,-22.67 -12.55,0 -22.75,10.16 -22.75,22.67 0,12.52 10.2,22.69 22.75,22.69 z m 24.31,-75.32 c 16.58,0 30.07,-13.51 30.07,-30.09 0,-10.9 -10.55,-24.13 -19.88,-29.9 -7.88,9.32 -19.61,15.28 -32.79,15.28 -1.16,0 -2.3,-0.08 -3.43,-0.18 -2.52,4.39 -4.08,9.38 -4.08,14.8 0,16.58 13.51,30.09 30.11,30.09 z M 1865,2154.45 c -15.46,0 -27.97,12.52 -27.97,27.97 0,7.55 2.99,14.41 7.85,19.45 5.06,5.34 12.24,8.69 20.19,8.69 12.02,0 22.25,-7.63 26.12,-18.29 1.15,-3.07 1.79,-6.38 1.79,-9.85 0,-15.45 -12.53,-27.97 -27.98,-27.97 z m -442.38,242.3 c 18.93,0 34.3,-15.31 34.3,-34.2 0,-8.65 -3.21,-16.55 -8.53,-22.57 -7.15,5.41 -16.08,8.63 -25.71,8.63 -9.67,0 -18.58,-3.23 -25.72,-8.68 -5.31,6.03 -8.54,13.95 -8.54,22.62 0,18.89 15.31,34.2 34.2,34.2 z m -21.45,96.6 c 0,11.89 9.64,21.53 21.53,21.53 11.92,0 21.61,-9.64 21.61,-21.53 0,-11.89 -9.69,-21.53 -21.61,-21.53 -11.89,0 -21.53,9.64 -21.53,21.53 z m 21.53,-30.62 c 15.29,0 27.71,-12.37 27.71,-27.61 0,-15.24 -12.42,-27.61 -27.71,-27.61 -15.25,0 -27.6,12.37 -27.6,27.61 0,15.24 12.35,27.61 27.6,27.61 z m -0.04,-216.69 c -15.35,0 -27.78,12.43 -27.78,27.78 0,15.33 12.43,27.78 27.78,27.78 15.39,0 27.88,-12.45 27.88,-27.78 0,-15.35 -12.49,-27.78 -27.88,-27.78 z m -442.222,-91.61 c -15.454,0 -27.977,12.54 -27.977,27.99 0,5.84 1.785,11.27 4.848,15.76 4.98,7.46 13.484,12.38 23.129,12.38 9.64,0 18.136,-4.92 23.112,-12.36 3.07,-4.5 4.87,-9.93 4.87,-15.78 0,-15.45 -12.525,-27.99 -27.982,-27.99 z m -39.379,47.44 c -1.407,-2.87 -10.86,-22.78 3.058,-44.1 15.153,-23.2 40.906,-19.21 41.766,-19.1 17.777,-22.48 47.467,-49.29 71.737,-42.37 0,0 152.92,70.88 364.99,71.18 h 0.17 c 212.19,-0.3 365.12,-71.18 365.12,-71.18 24.26,-6.92 53.96,19.89 71.73,42.37 0.86,-0.11 26.61,-4.1 41.77,19.1 13.91,21.32 4.46,41.23 3.05,44.1 12.69,20.55 32.2,38.79 32.2,38.79 8.99,8.32 14.63,20.14 14.63,33.33 0,25.09 -20.42,45.54 -45.51,45.54 -2.03,0 -3.99,-0.18 -5.93,-0.42 -0.32,1.26 -0.75,2.56 -1.1,3.82 12.3,6.34 20.81,19.04 20.81,33.78 0,21.03 -17.1,38.13 -38.09,38.13 -7.07,0 -13.58,-2.05 -19.24,-5.37 -1.09,1.27 -2.14,2.54 -3.3,3.8 5.92,5.71 9.62,13.66 9.62,22.5 0,17.34 -14.11,31.43 -31.46,31.43 -10.63,0 -20.01,-5.34 -25.69,-13.48 -1.81,1.2 -3.62,2.39 -5.46,3.56 3.5,4.76 5.64,10.59 5.64,16.92 0,15.77 -12.85,28.59 -28.65,28.59 -12.37,0 -22.83,-7.96 -26.79,-19 -2.95,1.3 -6,2.57 -9.04,3.84 2.32,3.85 3.71,8.31 3.71,13.14 0,14.29 -11.65,25.94 -25.95,25.94 -12.9,0 -23.58,-9.53 -25.51,-21.96 -1.96,0.61 -3.79,1.24 -5.79,1.84 -4.31,15.17 -18.13,26.39 -34.69,26.39 -3.67,0 -7.21,-0.63 -10.52,-1.69 -1.3,1.09 -2.63,2.15 -3.98,3.17 0.03,0.58 0.09,1.12 0.09,1.69 0,16.83 -13.7,30.53 -30.55,30.53 -6.64,0 -12.74,-2.18 -17.72,-5.8 -1.21,0.46 -2.37,0.94 -3.57,1.39 0,0.24 0.08,0.48 0.08,0.73 0,15.23 -12.39,27.59 -27.66,27.59 -10.31,0 -19.24,-5.79 -23.95,-14.24 -2.12,0.4 -4.27,0.79 -6.48,1.19 0.03,0.32 0.13,0.66 0.13,0.99 0,13.84 -11.32,25.12 -25.2,25.12 -12.02,0 -22.11,-8.53 -24.51,-19.88 -2.42,0.19 -4.92,0.37 -7.39,0.52 3.04,7.15 4.72,14.99 4.72,23.22 0,22.83 -12.93,42.68 -31.89,52.67 0,0 -6.97,3.61 -17.07,5.6 0,20.9 0,45.43 0,45.43 0,0 23.03,0 25.54,0 0.87,1.02 2.59,4.49 2.59,10.68 0,6.08 -1.72,9.56 -2.59,10.59 -2.51,0 -25.54,0 -25.54,0 v 25.45 c -1.05,0.87 -4.54,2.56 -10.68,2.56 h -0.01 c -6.16,0 -9.63,-1.69 -10.69,-2.56 v -25.45 c 0,0 -22.92,0 -25.42,0 -0.88,-1.03 -2.59,-4.51 -2.59,-10.59 0,-6.19 1.71,-9.66 2.59,-10.68 2.5,0 25.42,0 25.42,0 0,0 0,-24.53 0,-45.43 -10.04,-1.99 -16.98,-5.6 -16.98,-5.6 -18.94,-9.99 -31.88,-29.84 -31.88,-52.67 0,-8.23 1.69,-16.07 4.74,-23.22 -2.47,-0.15 -4.98,-0.33 -7.39,-0.52 -2.41,11.35 -12.49,19.88 -24.52,19.88 -13.88,0 -25.19,-11.28 -25.19,-25.12 0,-0.33 0.09,-0.67 0.12,-0.99 -2.2,-0.4 -4.37,-0.79 -6.49,-1.19 -4.69,8.45 -13.62,14.24 -23.94,14.24 -15.26,0 -27.66,-12.36 -27.66,-27.59 0,-0.25 0.09,-0.49 0.09,-0.73 -1.21,-0.45 -2.38,-0.93 -3.58,-1.39 -4.98,3.62 -11.08,5.8 -17.71,5.8 -16.86,0 -30.56,-13.7 -30.56,-30.53 0,-0.57 0.06,-1.11 0.1,-1.69 -1.36,-1.02 -2.68,-2.08 -3.99,-3.17 -3.31,1.06 -6.84,1.69 -10.52,1.69 -16.56,0 -30.38,-11.22 -34.69,-26.39 -1.99,-0.6 -3.83,-1.23 -5.79,-1.84 -1.93,12.43 -12.6,21.96 -25.52,21.96 -14.29,0 -25.93,-11.65 -25.93,-25.94 0,-4.83 1.38,-9.29 3.71,-13.14 -3.05,-1.27 -6.1,-2.54 -9.05,-3.84 -3.95,11.04 -14.42,19 -26.79,19 -15.8,0 -28.65,-12.82 -28.65,-28.59 0,-6.33 2.14,-12.16 5.64,-16.92 -1.84,-1.17 -3.65,-2.36 -5.46,-3.56 -5.66,8.14 -15.05,13.48 -25.7,13.48 -17.334,0 -31.451,-14.09 -31.451,-31.43 0,-8.84 3.707,-16.79 9.625,-22.5 -1.156,-1.26 -2.207,-2.53 -3.293,-3.8 -5.672,3.32 -12.188,5.37 -19.242,5.37 -20.993,0 -38.098,-17.1 -38.098,-38.13 0,-14.74 8.508,-27.44 20.812,-33.78 -0.363,-1.26 -0.781,-2.56 -1.109,-3.82 -1.934,0.24 -3.894,0.42 -5.918,0.42 -25.09,0 -45.512,-20.45 -45.512,-45.54 0,-13.19 5.633,-25.01 14.629,-33.33 0,0 19.504,-18.24 32.196,-38.79"
         style="fill:#ffffff;fill-opacity:1;fill-rule:nonzero;stroke:none"
         id="path108" /><path
         d="m 1732.22,1978.62 c 4.01,0 7.78,2.43 9.26,6.42 1.86,5.13 -0.73,10.8 -5.82,12.7 -98.66,36.55 -202.75,55.07 -309.54,55.07 h -6.87 c -106.68,0 -210.8,-18.52 -309.43,-55.07 -5.13,-1.9 -7.72,-7.57 -5.83,-12.7 1.88,-5.1 7.58,-7.72 12.68,-5.83 96.45,35.75 198.24,53.88 302.58,53.88 h 6.87 c 104.45,0 206.23,-18.13 302.67,-53.88 1.14,-0.41 2.28,-0.59 3.43,-0.59"
         style="fill:#ffffff;fill-opacity:1;fill-rule:nonzero;stroke:none"
         id="path110" /><path
         d="m 1732.62,2057.85 c 12.39,2.05 25.99,4.28 32.84,5.43 2.24,-6.03 5.25,-14.12 7.61,-20.33 -5.83,-3.23 -13.37,-7.42 -19.02,-10.56 -4.46,5.31 -13.35,15.86 -21.43,25.46 z m -99.53,30.25 c -1.84,-9.08 -10.77,-14.93 -19.89,-13.06 l -33.14,6.79 c -9.13,1.89 -14.98,10.8 -13.15,19.9 1.86,9.11 10.79,15.02 19.91,13.12 L 1620,2108 c 9.17,-1.87 14.98,-10.79 13.09,-19.9 z m -210.45,2.99 -34.65,19.81 34.71,19.85 34.78,-19.85 z m -157.25,-9.26 -33.15,-6.79 c -9.11,-1.87 -18.04,3.98 -19.87,13.06 -1.91,9.11 3.92,18.03 13.08,19.9 l 33.18,6.85 c 9.12,1.9 18.04,-4.01 19.91,-13.12 1.84,-9.1 -4.01,-18.01 -13.15,-19.9 z m -174,-49.44 c -5.64,3.14 -13.18,7.33 -19,10.56 2.35,6.21 5.36,14.3 7.6,20.33 6.84,-1.15 20.45,-3.38 32.85,-5.43 -8.09,-9.6 -16.99,-20.15 -21.45,-25.46 z m 700.4,3.65 -14.35,38.37 -2.18,5.82 -18.48,-3.05 c -101.11,38.79 -207.51,59.39 -316.65,61.35 l -17.49,9.99 -17.39,-9.99 c -109.07,-1.96 -215.47,-22.56 -316.57,-61.35 l -18.49,3.05 -2.17,-5.82 -14.36,-38.37 41.26,-22.92 13.3,15.8 c 93.8,35.17 192.37,54.17 293.38,56.43 l 21.04,-12.03 21.16,12.03 c 101.06,-2.26 199.63,-21.26 293.43,-56.43 l 13.3,-15.8 41.26,22.92"
         style="fill:#ffffff;fill-opacity:1;fill-rule:nonzero;stroke:none"
         id="path112" /></g></g></svg>
