<?xml version="1.0" encoding="UTF-8"?>
<svg xmlns="http://www.w3.org/2000/svg" xmlns:xlink="http://www.w3.org/1999/xlink" width="1024pt" height="1024pt" viewBox="0 0 1024 1024" version="1.1">
<g id="surface1">
<path style=" stroke:none;fill-rule:nonzero;fill:rgb(0%,0%,0%);fill-opacity:1;" d="M 666.316406 157.582031 C 750.835938 198.144531 840.703125 224.921875 935.886719 237.902344 L 933.390625 317.070312 C 929.433594 522.316406 872.28125 632.039062 667.546875 870.847656 L 512.027344 1019.046875 L 355.558594 869.925781 C 150.824219 631.128906 93.671875 521.382812 89.742188 316.160156 L 87.230469 236.992188 C 182.414062 224 272.28125 197.222656 356.800781 156.671875 C 424.21875 124.328125 471.230469 73.546875 511.296875 4.097656 C 551.488281 74.007812 598.617188 125.105469 666.316406 157.582031 Z M 520.28125 715.738281 C 684.097656 582.414062 728.511719 535.4375 728.511719 459.265625 C 728.511719 395.761719 677.746094 344.972656 614.234375 344.972656 C 562.1875 344.972656 532.992188 374.183594 512.679688 397.042969 C 492.351562 374.183594 463.167969 344.972656 411.097656 344.972656 C 347.621094 344.972656 296.820312 395.761719 296.820312 459.265625 C 296.820312 535.4375 341.273438 582.414062 505.050781 715.738281 L 512.679688 722.074219 Z M 511.730469 194.46875 C 483.902344 194.46875 461.375 217.011719 461.375 244.824219 C 461.375 272.613281 483.902344 295.15625 511.730469 295.15625 C 539.53125 295.15625 562.0625 272.613281 562.0625 244.824219 C 562.0625 217.011719 539.53125 194.46875 511.730469 194.46875 Z M 511.730469 194.46875 "/>
</g>
</svg>
